<svg width="12" height="15" viewBox="0 0 12 15" fill="none" xmlns="http://www.w3.org/2000/svg">
<path d="M1.761 15.0001C1.55973 14.9341 1.35152 14.89 1.16065 14.7983C0.397206 14.4277 -0.02963 13.6278 0.00160193 12.7435C0.0397743 11.6941 0.275749 10.7107 0.765049 9.79709C1.42439 8.56421 2.36829 7.6579 3.59327 7.07816C3.67309 7.04146 3.7529 7.00477 3.85007 6.95707C2.68061 5.95169 2.17396 4.67111 2.43422 3.10066C2.58691 2.18334 3.03804 1.42747 3.72514 0.847727C5.24163 -0.429181 7.34458 -0.216363 8.60773 1.17429C9.36424 2.00722 9.70779 3.0126 9.61757 4.16475C9.52734 5.3169 9.01375 6.23422 8.14619 6.94973C8.33359 7.04146 8.50363 7.11485 8.6702 7.20658C10.1485 8.00648 11.1618 9.24303 11.6997 10.9015C11.9253 11.595 12.0328 12.3142 11.9912 13.0481C11.9357 14.0168 11.2243 14.824 10.3151 14.9708C10.2908 14.9744 10.2665 14.9891 10.2387 15.0001C7.41051 15.0001 4.58575 15.0001 1.761 15.0001ZM6.00507 13.848C7.30293 13.848 8.60079 13.8406 9.89518 13.8516C10.5684 13.8553 10.9571 13.3343 10.9015 12.7582C10.8807 12.549 10.8773 12.3399 10.846 12.1308C10.6309 10.619 9.92294 9.41182 8.72225 8.57889C7.17106 7.50379 5.50883 7.36069 3.84313 8.23398C2.05944 9.16964 1.15718 10.7511 1.09125 12.8573C1.08778 13.0077 1.12595 13.1728 1.18494 13.3049C1.36193 13.6939 1.68466 13.8443 2.08026 13.8443C3.392 13.848 4.70027 13.848 6.00507 13.848ZM5.99119 6.5351C7.38969 6.54244 8.53833 5.33892 8.54527 3.85286C8.55221 2.37781 7.41745 1.16695 6.00507 1.15228C4.62046 1.13393 3.45794 2.3558 3.45099 3.83819C3.44405 5.31324 4.58922 6.52777 5.99119 6.5351Z" fill="#FE2C55"/>
</svg>
