<svg width="12" height="12" viewBox="0 0 12 12" fill="none" xmlns="http://www.w3.org/2000/svg">
<path d="M11.0012 2.87984C11.0012 3.48175 11.0029 4.08322 11.0003 4.68512C10.999 5.04101 10.8753 5.35036 10.6236 5.6037C10.255 5.97467 9.88426 6.34305 9.51397 6.71272C8.18366 8.04147 6.85335 9.37022 5.52347 10.6994C5.40492 10.8179 5.2812 10.9282 5.11912 10.9838C4.78719 11.0975 4.47854 11.0501 4.21472 10.8205C3.99788 10.6313 3.79743 10.4228 3.59353 10.2194C2.53049 9.15781 1.46831 8.0949 0.406998 7.03198C0.332421 6.95744 0.259138 6.88032 0.194476 6.79717C-0.0796903 6.443 -0.0602918 5.95269 0.247929 5.62611C0.473815 5.38655 0.710477 5.15691 0.94369 4.92381C2.27443 3.59291 3.6056 2.26243 4.93634 0.931955C5.1161 0.752289 5.29284 0.569176 5.47648 0.392957C5.71099 0.16762 5.99723 0.047843 6.3201 0.0461195C7.54695 0.0409493 8.77337 0.0439653 10.0002 0.0439653C10.277 0.0439653 10.5274 0.116349 10.727 0.319712C10.8874 0.483005 10.9839 0.678182 10.9904 0.908258C10.999 1.24303 10.9995 1.5778 11.0012 1.91258C11.0029 2.23486 11.0012 2.55714 11.0012 2.87941V2.87984ZM9.16522 2.80057C9.17255 2.30552 8.77467 1.89577 8.28798 1.87854C7.76767 1.86001 7.33745 2.27019 7.33271 2.7898C7.3284 3.28097 7.72758 3.69287 8.21254 3.71225C8.72811 3.73294 9.17514 3.31027 9.16522 2.80057Z" fill="#1778F2"/>
</svg>
