<svg width="15" height="15" viewBox="0 0 15 15" fill="none" xmlns="http://www.w3.org/2000/svg">
<path d="M-0.000976562 3.25159C0.0796573 2.99844 0.123639 2.72695 0.24459 2.49215C0.658755 1.66668 1.34414 1.22643 2.27143 1.17507C2.53166 1.16039 2.79555 1.1714 3.07411 1.1714C3.07411 0.984289 3.07411 0.808189 3.07411 0.635757C3.07411 0.265212 3.31601 0.00472974 3.65687 0.00106098C3.99773 0.00106098 4.23963 0.261543 4.2433 0.632088C4.2433 0.808189 4.2433 0.980621 4.2433 1.16406C5.12294 1.16406 5.98792 1.16406 6.87856 1.16406C6.87856 0.969614 6.87123 0.771501 6.87856 0.573388C6.89322 0.169824 7.2744 -0.0943269 7.65191 0.0340798C7.88282 0.111124 8.04042 0.323912 8.04775 0.577057C8.05508 0.767832 8.04775 0.958608 8.04775 1.16039C8.93472 1.16039 9.81436 1.16039 10.7123 1.16039C10.7123 0.965946 10.705 0.767832 10.7123 0.569719C10.7343 0.111124 11.2218 -0.149358 11.6066 0.0927801C11.7862 0.206512 11.8742 0.371606 11.8815 0.580726C11.8852 0.771501 11.8815 0.958608 11.8815 1.1714C12.0538 1.1714 12.2187 1.17507 12.38 1.1714C12.7465 1.16406 13.1094 1.18974 13.4576 1.32182C14.3299 1.64467 14.9603 2.49215 14.9749 3.42402C14.9933 4.565 14.9823 5.70966 14.9786 6.85064C14.9786 7.18817 14.7184 7.44131 14.3958 7.44131C14.066 7.44131 13.8131 7.1845 13.8131 6.83964C13.8094 5.75735 13.8131 4.6714 13.8131 3.58911C13.8131 3.08649 13.6078 2.70127 13.1497 2.47381C13.0177 2.40777 12.8638 2.36741 12.7172 2.36008C12.446 2.34173 12.1711 2.35641 11.8815 2.35641C11.8815 2.53251 11.8815 2.70861 11.8815 2.88104C11.8779 3.26259 11.636 3.52674 11.2878 3.52307C10.9469 3.5194 10.7123 3.25892 10.7087 2.88471C10.7087 2.71595 10.7087 2.54351 10.7087 2.36374C9.8217 2.36374 8.94205 2.36374 8.04408 2.36374C8.04408 2.52517 8.04408 2.68293 8.04408 2.84435C8.04408 3.25525 7.81684 3.52307 7.46132 3.52307C7.1058 3.52674 6.87489 3.25892 6.87123 2.84802C6.87123 2.6866 6.87123 2.52884 6.87123 2.36008C5.99159 2.36008 5.1266 2.36008 4.23597 2.36008C4.23597 2.55452 4.2433 2.75263 4.23597 2.94708C4.22131 3.35064 3.84013 3.61479 3.46628 3.49005C3.23171 3.41301 3.07411 3.19655 3.07044 2.9324C3.06678 2.7453 3.07044 2.55452 3.07044 2.33806C2.72591 2.35641 2.38872 2.33439 2.06985 2.39676C1.54573 2.48481 1.2012 2.94341 1.17188 3.49005C1.16821 3.53041 1.17188 3.5671 1.17188 3.60746C1.17188 6.59383 1.17188 9.58387 1.17188 12.5702C1.17188 13.0765 1.3698 13.4764 1.83528 13.6966C2.01487 13.7809 2.22745 13.8176 2.42904 13.8213C3.86945 13.8323 5.3062 13.8286 6.74661 13.825C6.9372 13.825 7.1058 13.8653 7.24141 14.0047C7.52363 14.2909 7.43567 14.7678 7.07281 14.9403C7.02883 14.9623 6.98485 14.9806 6.94087 14.999C5.32086 14.999 3.70085 14.999 2.08084 14.999C2.05885 14.9916 2.03686 14.977 2.01487 14.9733C1.19021 14.8412 0.592782 14.3973 0.233595 13.6489C0.123639 13.4214 0.0796573 13.1646 0.00268861 12.9188C-0.000976562 9.6976 -0.000976562 6.47643 -0.000976562 3.25159Z" fill="#FE2C55"/>
<path d="M11.1524 14.9994C10.8189 14.915 10.4743 14.8637 10.1518 14.7463C8.63075 14.1886 7.67047 12.5047 7.95269 10.9124C8.20192 9.50729 9.0046 8.53507 10.357 8.09849C11.7461 7.64723 12.9996 7.97742 14.0112 9.03035C14.9422 10.0026 15.2207 11.1876 14.8286 12.4717C14.4107 13.8401 13.4505 14.6656 12.0394 14.9444C11.9404 14.9627 11.8378 14.9811 11.7388 14.9994C11.5409 14.9994 11.3466 14.9994 11.1524 14.9994ZM13.8133 11.4517C13.8133 10.1457 12.7394 9.07805 11.4383 9.08172C10.1371 9.08538 9.0779 10.1493 9.07423 11.4481C9.07057 12.7541 10.1371 13.8254 11.4419 13.8254C12.7467 13.8291 13.817 12.7578 13.8133 11.4517Z" fill="#FE2C55"/>
<path d="M4.24351 6.15393C4.24351 6.47666 3.97605 6.74071 3.65363 6.73704C3.33121 6.73338 3.07108 6.46566 3.07475 6.14292C3.07841 5.82752 3.3422 5.56714 3.65729 5.56714C3.97971 5.56714 4.24351 5.83119 4.24351 6.15393Z" fill="#FE2C55"/>
<path d="M6.20755 6.73683C5.88513 6.7405 5.62134 6.47278 5.61768 6.15371C5.61768 5.83098 5.88514 5.56693 6.20389 5.57059C6.51898 5.57426 6.77911 5.83098 6.78644 6.14638C6.79376 6.46544 6.52997 6.73683 6.20755 6.73683Z" fill="#FE2C55"/>
<path d="M9.33384 6.15738C9.33384 6.48011 9.06638 6.74417 8.74396 6.7405C8.42155 6.73683 8.16141 6.46911 8.16508 6.14638C8.1724 5.83098 8.43254 5.57059 8.74763 5.57059C9.07371 5.56693 9.3375 5.83465 9.33384 6.15738Z" fill="#FE2C55"/>
<path d="M11.2986 6.73659C10.9762 6.73659 10.7124 6.47254 10.7124 6.14981C10.7124 5.82707 10.9799 5.56302 11.3023 5.56669C11.6174 5.57036 11.8775 5.83074 11.8812 6.14614C11.8848 6.46887 11.621 6.73659 11.2986 6.73659Z" fill="#FE2C55"/>
<path d="M3.65276 8.11674C3.97518 8.11307 4.24264 8.37712 4.24264 8.69986C4.24264 9.02259 3.97885 9.28664 3.65643 9.28664C3.34134 9.28664 3.07754 9.02626 3.07388 8.71086C3.06655 8.38813 3.33035 8.1204 3.65276 8.11674Z" fill="#FE2C55"/>
<path d="M6.20731 9.28639C5.88489 9.29006 5.62109 9.02234 5.62109 8.70327C5.62109 8.38054 5.88855 8.11649 6.21097 8.12015C6.52606 8.12382 6.78619 8.38054 6.78986 8.69594C6.79352 9.015 6.52972 9.28273 6.20731 9.28639Z" fill="#FE2C55"/>
<path d="M4.24283 11.2609C4.23551 11.5836 3.96438 11.8404 3.64196 11.833C3.31955 11.8257 3.06308 11.5506 3.07407 11.2279C3.08506 10.9125 3.35252 10.6595 3.66761 10.6631C3.98636 10.6705 4.25016 10.9418 4.24283 11.2609Z" fill="#FE2C55"/>
<path d="M6.20389 11.8364C5.88147 11.8364 5.61768 11.5724 5.61768 11.2497C5.61768 10.9269 5.88514 10.6629 6.20755 10.6665C6.52264 10.6702 6.78277 10.9306 6.78644 11.246C6.7901 11.5687 6.52631 11.8328 6.20389 11.8364Z" fill="#FE2C55"/>
<path d="M12.0276 10.8711C12.1448 10.8711 12.2364 10.8675 12.328 10.8711C12.6431 10.8931 12.8813 11.1498 12.8776 11.4616C12.8739 11.766 12.6358 12.0227 12.3244 12.0337C12.0166 12.0447 11.7088 12.0447 11.4047 12.0337C11.108 12.0227 10.8698 11.7843 10.8625 11.4836C10.8515 11.0655 10.8515 10.6437 10.8625 10.2257C10.8698 9.9066 11.13 9.66821 11.4414 9.66821C11.7528 9.66821 12.0093 9.91026 12.0239 10.2257C12.0349 10.4347 12.0276 10.6437 12.0276 10.8711Z" fill="#FE2C55"/>
</svg>
