<svg width="27" height="27" viewBox="0 0 27 27" fill="none" xmlns="http://www.w3.org/2000/svg">
<path d="M13.4918 27C6.11335 26.9767 -0.151384 20.9502 0.00303963 13.1662C0.144771 5.98489 6.10489 -0.0733517 13.6611 0.000671256C21.012 0.0736367 27.1477 6.1414 26.9975 13.7795C26.8548 21.02 20.9486 26.9725 13.4929 27H13.4918ZM25.3158 13.4496C25.3148 7.00218 20.0379 1.77722 13.7002 1.67993C7.04306 1.57736 1.77362 6.96305 1.6816 13.3005C1.58429 19.9742 6.99864 25.3324 13.5162 25.3154C19.9512 25.2985 25.3401 20.082 25.3158 13.4496Z" fill="#333333"/>
<path d="M18.6639 12.6542C18.5656 12.558 18.4947 12.4882 18.4238 12.4184C17.5703 11.5692 16.7146 10.7211 15.8631 9.86986C15.5405 9.54733 15.4824 9.11166 15.7024 8.76375C15.9827 8.32067 16.6141 8.24453 16.9938 8.61993C17.6633 9.28085 18.3265 9.94706 18.9907 10.6133C19.7163 11.3419 20.4398 12.0726 21.1664 12.8012C21.3409 12.9757 21.4911 13.1639 21.5155 13.4187C21.543 13.7117 21.4171 13.9454 21.214 14.1473C20.7359 14.62 20.26 15.0948 19.784 15.5707C18.8606 16.4939 17.9405 17.4191 17.016 18.3413C16.6353 18.7209 16.245 18.6902 15.8621 18.4269C15.5257 18.1953 15.4612 17.6528 15.7278 17.3028C15.8653 17.122 16.0303 16.9613 16.1921 16.7995C16.9695 16.0233 17.7501 15.2492 18.5285 14.4751C18.5624 14.4413 18.5941 14.4054 18.6533 14.343C18.5751 14.343 18.5254 14.343 18.4767 14.343C14.4596 14.343 10.4414 14.343 6.42427 14.344C6.10801 14.344 5.83196 14.2637 5.6384 13.9982C5.4459 13.7349 5.42263 13.4462 5.55061 13.1501C5.69446 12.8181 5.97475 12.687 6.31638 12.6584C6.38196 12.6531 6.44859 12.6542 6.51417 12.6542C10.4837 12.6542 14.4522 12.6542 18.4217 12.6542C18.4873 12.6542 18.5529 12.6542 18.6629 12.6542H18.6639Z" fill="#333333"/>
</svg>
