<svg width="1920" height="724" viewBox="0 0 1920 724" fill="none" xmlns="http://www.w3.org/2000/svg">
<rect width="1920" height="724" fill="#011627"/>
<mask id="mask0_426_5428" style="mask-type:alpha" maskUnits="userSpaceOnUse" x="0" y="0" width="1920" height="724">
<rect width="1920" height="724" fill="#011627"/>
</mask>
<g mask="url(#mask0_426_5428)">
<mask id="mask1_426_5428" style="mask-type:alpha" maskUnits="userSpaceOnUse" x="0" y="-400" width="1920" height="1320">
<rect y="-399.584" width="1920" height="1318.76" fill="#187EFE"/>
</mask>
<g mask="url(#mask1_426_5428)">
<path d="M-71.378 6.71007L-62.3388 -1.26888L-57.8136 -5.26209C-57.0706 -5.95464 -56.294 -6.56614 -55.5007 -7.14817L-53.1432 -8.93847L-43.6682 -16.0407C-42.8749 -16.6228 -42.0983 -17.249 -41.2882 -17.7868L-38.8357 -19.3487L-33.925 -22.4799C-20.9248 -31.1441 -7.15368 -37.5538 6.71803 -43.4551C34.7464 -54.0717 63.987 -59.3321 93.2164 -58.9932L104.172 -58.5585C105.999 -58.47 107.826 -58.4553 109.652 -58.3006L115.116 -57.7038L126.044 -56.4661L136.91 -54.499C144.178 -53.3865 151.318 -51.2573 158.513 -49.5259C159.407 -49.2901 160.312 -49.0913 161.206 -48.826L163.871 -47.9714L169.201 -46.2621L174.53 -44.5529C176.307 -43.9782 178.089 -43.4477 179.832 -42.7184L190.346 -38.5926C192.095 -37.8779 193.855 -37.2517 195.598 -36.456C197.335 -35.6456 199.095 -34.8941 200.821 -34.0395C207.743 -30.6725 214.497 -26.8267 221.101 -22.6346C234.313 -14.2283 247.006 -4.65792 259.409 5.41343C284.158 25.7182 307.862 47.8207 331.773 69.3558C355.622 90.9941 379.723 112.095 404.936 130.558C417.534 139.782 430.501 148.1 443.819 155.239C457.155 162.26 470.909 168.065 485.054 171.322C499.166 174.689 513.669 175.588 527.943 173.053C535.072 171.756 542.117 169.605 548.977 166.651C555.849 163.748 562.541 160.035 568.977 155.644C562.703 160.433 556.134 164.588 549.312 167.948C542.485 171.27 535.413 173.768 528.217 175.425C513.809 178.667 498.993 178.461 484.507 175.698C470.004 172.913 455.881 167.439 442.182 160.764C428.5 153.971 415.266 145.757 402.383 136.768C389.478 127.817 376.935 118.04 364.617 107.844C352.287 97.6617 340.17 87.1041 328.119 76.4433C304.046 55.0776 280.353 33.071 255.8 13.1051C243.548 3.07794 231.068 -6.40403 218.185 -14.6777C211.743 -18.8035 205.184 -22.5756 198.514 -25.8542C196.849 -26.6941 195.162 -27.4161 193.486 -28.2118C191.81 -28.9854 190.061 -29.6116 188.357 -30.3262L178.061 -34.5036C150.463 -45.0465 121.837 -50.6679 93.1159 -51.9793C89.5237 -52.1708 85.9314 -51.9867 82.3392 -52.0161L76.948 -51.9793C76.0486 -51.9646 75.1492 -51.9867 74.2497 -51.9425L71.5569 -51.7288C64.3837 -51.1173 57.188 -50.7858 50.0538 -49.4965C46.4839 -48.9144 42.8917 -48.5239 39.3386 -47.7872L28.7016 -45.3633C26.9306 -44.9434 25.1485 -44.5897 23.3831 -44.1108L18.126 -42.4826L7.60631 -39.2336C-6.23746 -34.0468 -20.0589 -28.337 -33.182 -20.3359C-46.5006 -12.8948 -59.0427 -3.29494 -71.4004 6.69537L-71.378 6.71007Z" fill="#021D32"/>
<path d="M1945.81 904.371L1935.66 892.472C1932.22 888.582 1928.82 884.633 1925.36 880.795C1918.45 873.074 1911.49 865.456 1904.38 858.103C1890.16 843.361 1875.46 829.451 1860.18 816.786C1829.73 791.332 1796.79 770.813 1761.93 759.246C1727.07 747.561 1690.96 743.657 1654.93 743.266C1618.85 742.787 1582.71 745.469 1546.46 747.141C1510.23 748.63 1473.73 749.182 1437.44 743.671C1419.32 740.872 1401.29 736.54 1383.66 730.1L1377.07 727.559C1374.88 726.704 1372.67 725.916 1370.52 724.877L1364.03 721.937C1361.87 720.957 1359.69 720.014 1357.59 718.828L1351.22 715.454C1349.09 714.334 1346.97 713.236 1344.9 711.903L1338.68 708.094L1335.57 706.186L1334.02 705.235L1332.5 704.174C1316.16 693.344 1300.68 680.399 1286.12 665.959C1271.54 651.526 1257.79 635.76 1244.68 619.19C1231.6 602.562 1219.14 585.16 1207.01 567.397C1200.94 558.519 1194.97 549.531 1189.03 540.506L1171.43 513.202L1189.8 539.592C1195.94 548.367 1202.09 557.134 1208.34 565.761C1220.82 583.038 1233.62 599.91 1246.98 615.949C1260.29 632.032 1274.15 647.319 1288.77 661.178C1292.47 664.545 1296.14 667.985 1299.86 671.308L1311.23 680.871L1322.91 689.727C1326.87 692.512 1330.89 695.142 1334.88 697.853C1351.02 708.167 1367.9 716.353 1385.22 722.453C1402.55 728.561 1420.29 732.613 1438.16 735.162C1473.92 740.334 1510.1 739.744 1546.23 738.109C1582.37 736.621 1618.62 733.946 1655 734.727C1673.19 735.155 1691.4 736.422 1709.51 739.155C1727.62 741.859 1745.65 746.125 1763.28 752.446C1780.9 758.76 1798.13 767.056 1814.58 777.451C1831.05 787.788 1846.86 799.812 1861.99 813.088C1877.1 826.416 1891.57 840.944 1905.5 856.254C1912.48 863.901 1919.3 871.777 1926.03 879.778C1929.39 883.794 1932.67 887.912 1935.99 891.972L1945.8 904.371H1945.81Z" fill="#021D32"/>
<path d="M1921.02 743.907C1913.29 744.806 1905.44 743.289 1898.01 740.231C1890.59 737.07 1883.54 732.539 1876.8 727.419C1863.3 717.178 1850.91 704.705 1837.94 693.809C1834.69 691.097 1831.43 688.445 1828.08 686.021C1826.41 684.798 1824.72 683.664 1823.01 682.544L1817.79 679.28C1810.8 674.999 1803.73 670.977 1796.58 667.241C1789.4 663.55 1782.17 660.088 1774.87 656.897C1767.57 653.715 1760.18 650.886 1752.75 648.292C1723 637.963 1692.36 632.843 1661.6 631.561C1630.82 630.146 1599.96 632.069 1569.1 634.633C1538.23 637.072 1507.29 640.092 1476.2 640.903L1464.54 641.043C1460.66 641.124 1456.76 640.91 1452.87 640.858C1445.07 640.836 1437.3 640.085 1429.51 639.606C1425.63 639.238 1421.75 638.729 1417.87 638.302L1412.04 637.631L1406.25 636.659C1402.38 635.981 1398.51 635.377 1394.66 634.633L1383.13 632.025C1367.82 628.223 1352.59 623.633 1337.8 617.083L1332.23 614.726C1330.37 613.989 1328.57 612.95 1326.74 612.081L1315.81 606.607L1305.12 600.381C1303.35 599.313 1301.55 598.355 1299.8 597.206L1294.61 593.67C1266.81 575.126 1241.67 549.84 1220.95 519.472L1229.33 530.074C1230.74 531.827 1232.1 533.632 1233.53 535.341L1237.98 540.248C1240.96 543.497 1243.84 546.901 1246.87 550.032L1256.2 559.087C1268.84 570.713 1282.08 581.285 1296.09 589.699L1301.29 593.007C1303.03 594.082 1304.83 594.981 1306.6 595.976L1317.26 601.789L1328.14 606.843C1329.97 607.646 1331.75 608.618 1333.6 609.281L1339.13 611.433L1344.66 613.584C1346.51 614.306 1348.35 615.05 1350.22 615.61L1361.42 619.25C1363.27 619.898 1365.16 620.399 1367.05 620.878L1372.71 622.359C1376.48 623.339 1380.24 624.407 1384.05 625.085L1395.45 627.398C1399.26 628.039 1403.09 628.555 1406.91 629.137L1412.63 629.999L1418.39 630.581C1422.22 630.957 1426.05 631.399 1429.89 631.715C1437.58 632.076 1445.26 632.717 1452.96 632.629C1456.81 632.629 1460.64 632.784 1464.5 632.651L1476.06 632.349C1506.91 631.288 1537.75 628.216 1568.68 625.622C1599.62 623.228 1630.71 621.305 1661.85 623.036C1665.75 623.162 1669.63 623.567 1673.52 623.898C1677.41 624.274 1681.29 624.488 1685.17 625.077L1696.81 626.617L1708.4 628.709C1716.13 630.065 1723.81 631.959 1731.44 634.095C1739.07 636.261 1746.65 638.692 1754.15 641.507C1769.16 647.062 1783.91 653.818 1798.27 661.782C1805.44 665.79 1812.51 670.085 1819.49 674.624L1824.7 678.086C1826.45 679.295 1828.18 680.532 1829.87 681.844C1833.26 684.459 1836.56 687.229 1839.78 690.132C1852.63 701.743 1864.62 714.666 1877.73 725.378C1884.26 730.734 1891.11 735.486 1898.34 738.949C1905.57 742.39 1913.26 744.357 1921.02 743.907Z" fill="#021D32"/>
<path d="M216 1230.67C217.414 1220.78 218.844 1210.89 220.33 1201.01C221.866 1191.14 223.447 1181.29 225.168 1171.46C228.587 1151.82 232.436 1132.28 237.101 1113.02C241.833 1093.8 247.358 1074.83 254.241 1056.66C261.096 1038.47 269.319 1021.1 279.007 1005.18L280.8 1002.17C281.387 1001.16 281.996 1000.17 282.66 999.242L286.543 993.547C287.845 991.654 289.119 989.731 290.448 987.867L294.593 982.496C297.297 978.827 300.27 975.541 303.18 972.174L305.37 969.655L307.649 967.282L312.219 962.545C324.521 950.116 337.929 939.75 351.734 930.703C379.444 912.689 408.802 900.282 437.953 888.34C467.155 876.537 496.401 865.206 524.384 849.867C538.379 842.249 551.988 833.474 564.888 823.174C577.793 812.889 589.894 800.939 600.894 787.354C611.916 773.79 621.794 758.613 630.66 742.441C639.554 726.284 647.274 708.993 654.068 691.09C660.923 673.216 666.839 654.687 671.979 635.782C674.588 626.344 676.889 616.759 679.118 607.145C680.191 602.319 681.32 597.515 682.342 592.668L685.308 578.087L682.845 592.837C681.984 597.744 681.023 602.621 680.118 607.52C678.152 617.253 676.074 626.963 673.699 636.556C669.029 655.77 663.548 674.675 657.09 693.035C644.163 729.688 626.833 764.094 604.581 792.466L600.419 797.793C598.983 799.502 597.497 801.131 596.039 802.803C593.106 806.126 590.212 809.53 587.095 812.543L582.486 817.192C580.916 818.68 579.313 820.102 577.726 821.561C576.128 822.99 574.564 824.5 572.933 825.871L568.027 829.938C554.893 840.679 541.066 849.83 526.904 857.772C498.535 873.597 469.088 885.061 439.97 896.989C410.824 908.74 381.801 921.007 354.578 938.38C340.991 947.051 327.851 956.968 315.812 968.874C303.739 980.706 292.75 994.387 283.124 1009.64C273.481 1024.88 265.286 1041.72 258.213 1059.35C251.112 1076.98 245.341 1095.56 240.252 1114.45C235.14 1133.33 230.81 1152.61 226.905 1172.05C224.933 1181.77 223.129 1191.54 221.319 1201.32C219.497 1211.09 217.732 1220.89 215.983 1230.68L216 1230.67Z" fill="#021D32"/>
<path d="M399.405 1259.41C393.327 1227.13 393.165 1192.93 398.221 1160.09C403.533 1127.3 413.975 1095.9 428.891 1068.51L434.735 1058.49C435.674 1056.78 436.78 1055.25 437.819 1053.65L440.97 1048.88C443.003 1045.61 445.372 1042.78 447.595 1039.76C449.853 1036.78 452.07 1033.73 454.506 1031.01C456.897 1028.23 459.26 1025.4 461.674 1022.65L469.132 1014.77C471.585 1012.08 474.216 1009.73 476.764 1007.22C479.328 1004.74 481.886 1002.25 484.535 999.95C505.479 980.986 527.669 965.028 548.876 947.457C559.552 938.807 569.927 929.642 579.826 919.703C582.262 917.161 584.793 914.76 587.156 912.115L594.223 904.128C595.43 902.839 596.514 901.373 597.631 899.966L600.972 895.715L604.318 891.471L607.519 886.977L613.927 877.988L620.045 868.654L623.106 863.983L626.023 859.157L631.855 849.498L637.414 839.552L640.19 834.572C641.107 832.9 641.95 831.168 642.844 829.481L648.14 819.277C649.872 815.844 651.498 812.322 653.185 808.852C666.543 780.951 677.878 751.356 687.37 720.744C688.621 716.95 689.727 713.082 690.828 709.207L694.146 697.588L697.169 685.83L698.683 679.943L700.052 673.998L702.789 662.099L705.197 650.075L706.42 644.063L707.476 638L709.582 625.858L707.985 638.14L707.18 644.284L706.202 650.385L704.208 662.585L701.873 674.683L700.705 680.731L699.364 686.721L696.66 698.693L693.655 710.548C692.66 714.504 691.655 718.453 690.504 722.336L687.141 734.028C685.995 737.918 684.716 741.727 683.504 745.58C681.141 753.323 678.392 760.838 675.749 768.427C674.465 772.243 672.945 775.905 671.532 779.647C670.068 783.346 668.716 787.125 667.157 790.765C664.057 798.044 661.101 805.441 657.738 812.528C651.347 826.976 644.107 840.731 636.643 854.265L630.81 864.189L627.889 869.147L624.821 873.951L618.682 883.566L612.24 892.834L609.017 897.468L605.581 901.881L602.14 906.294C600.989 907.761 599.871 909.271 598.637 910.612L591.391 918.871C588.966 921.604 586.391 924.079 583.899 926.702C573.798 936.936 563.256 946.344 552.502 955.119C530.999 972.72 508.892 988.589 488.171 1007.01C485.54 1009.23 483.009 1011.63 480.473 1014.02C477.959 1016.44 475.339 1018.7 472.925 1021.29L465.562 1028.85L458.512 1036.88C456.11 1039.48 453.936 1042.4 451.718 1045.25C449.528 1048.14 447.204 1050.88 445.188 1053.98L442.059 1058.51C441.031 1060.03 439.936 1061.48 438.998 1063.12L433.171 1072.68C418.338 1098.91 407.461 1129.1 401.478 1161.06C395.617 1193.05 394.801 1226.73 399.394 1259.42L399.405 1259.41Z" fill="#021D32"/>
<path d="M1781.6 -167.83C1777.97 -158.981 1774.31 -150.14 1770.6 -141.329C1766.85 -132.554 1763.07 -123.809 1759.15 -115.152C1751.35 -97.8237 1743.15 -80.768 1734.24 -64.3164C1725.28 -47.9237 1715.62 -32.0984 1704.85 -17.5623C1694.12 -3.01154 1682.26 10.2131 1669.34 21.4633L1666.93 23.6072C1666.14 24.3365 1665.33 25.0365 1664.48 25.648L1659.46 29.5085C1657.78 30.7831 1656.12 32.1019 1654.42 33.3396L1649.23 36.7802C1645.8 39.1894 1642.21 41.1197 1638.66 43.1458L1635.99 44.6635L1633.27 46.0043L1627.82 48.6714C1613.22 55.5452 1598.06 60.01 1582.81 63.0601C1552.25 69.0351 1521.42 69.013 1490.9 68.6299C1460.36 68.0921 1429.89 67.0975 1399.69 70.4128C1384.6 72.0189 1369.6 74.8922 1354.94 79.5043C1340.27 84.0942 1325.98 90.5997 1312.35 99.0945C1298.71 107.567 1285.79 118.036 1273.6 129.854C1261.39 141.649 1250.03 154.999 1239.41 169.307C1228.74 183.563 1218.81 198.813 1209.53 214.749C1204.86 222.684 1200.45 230.884 1196.1 239.136C1193.96 243.298 1191.77 247.424 1189.67 251.624L1183.47 264.31L1189.24 251.255C1191.19 246.93 1193.24 242.672 1195.24 238.377C1199.37 229.904 1203.6 221.491 1208.08 213.32C1216.99 196.913 1226.58 181.124 1236.99 166.242C1257.79 136.558 1282.27 110.779 1310.03 92.7363L1315.23 89.3473C1316.99 88.3011 1318.78 87.3433 1320.56 86.3413C1324.13 84.3595 1327.67 82.2892 1331.34 80.6757L1336.8 78.1045C1338.64 77.3235 1340.5 76.6162 1342.35 75.8647C1344.2 75.1427 1346.04 74.3397 1347.9 73.6914L1353.52 71.7979C1368.51 66.8617 1383.8 63.7305 1399.12 61.8813C1429.8 58.2491 1460.5 59.2069 1490.98 59.59C1521.46 60.1499 1551.94 60.172 1581.89 54.6096C1596.83 51.832 1611.64 47.6841 1625.86 41.2007C1640.1 34.7984 1653.74 26.2079 1666.44 15.5619C1679.15 4.93799 1690.86 -7.79305 1701.69 -21.7323C1712.54 -35.6569 1722.33 -51.0181 1731.56 -66.9466C1740.8 -82.8677 1749.4 -99.4814 1757.62 -116.412C1761.75 -124.87 1765.74 -133.445 1769.72 -142.021C1773.72 -150.597 1777.67 -159.21 1781.61 -167.837L1781.6 -167.83Z" fill="#021D32"/>
<path d="M1613.63 -269.133C1611.94 -235.95 1604.16 -203.312 1591.73 -174.085C1579.08 -145.013 1561.85 -119.315 1541.3 -99.2533L1533.42 -92.07C1532.12 -90.8249 1530.72 -89.8082 1529.36 -88.7031L1525.25 -85.4319C1522.56 -83.1333 1519.64 -81.3945 1516.83 -79.4127C1513.98 -77.4898 1511.17 -75.4785 1508.23 -73.8724C1505.3 -72.1852 1502.4 -70.4465 1499.47 -68.7961L1490.54 -64.3094C1487.58 -62.7327 1484.53 -61.5613 1481.52 -60.1983C1478.5 -58.8648 1475.49 -57.5239 1472.44 -56.4041C1448.1 -46.7895 1423.27 -40.5419 1399.01 -32.364C1386.83 -28.4371 1374.83 -23.884 1363.11 -18.4099C1360.2 -16.9733 1357.23 -15.7061 1354.36 -14.1368L1345.78 -9.38477C1344.33 -8.64066 1342.97 -7.68286 1341.57 -6.79877L1337.4 -4.10226L1333.23 -1.40576L1329.14 1.57806L1320.95 7.55307L1312.97 13.9775L1308.97 17.1898L1305.07 20.6083L1297.28 27.4527L1289.68 34.6802L1285.88 38.305C1284.62 39.528 1283.42 40.832 1282.17 42.0845L1274.76 49.6656C1272.32 52.2369 1269.95 54.9334 1267.55 57.5636C1248.36 78.7377 1230.71 102.351 1214.57 127.673C1212.5 130.782 1210.55 134.016 1208.61 137.265L1202.75 146.99L1197.15 156.966L1194.34 161.961L1191.66 167.066L1186.3 177.285L1181.21 187.762L1178.66 192.993L1176.25 198.341L1171.43 209.054L1175.8 198.01L1177.99 192.484L1180.33 187.069L1185.05 176.261L1190.08 165.689L1192.59 160.399L1195.26 155.242L1200.61 144.927L1206.22 134.856C1208.08 131.489 1209.95 128.129 1211.95 124.902L1217.86 115.126C1219.85 111.884 1221.96 108.775 1224 105.592C1228.05 99.1751 1232.41 93.1264 1236.68 86.9672C1238.79 83.8508 1241.09 80.9774 1243.29 77.9862C1245.55 75.054 1247.71 71.9965 1250.04 69.1674C1254.67 63.4797 1259.2 57.6373 1264.05 52.2369C1273.48 41.0604 1283.57 30.8785 1293.81 21.0061L1301.66 13.9112L1305.6 10.3675L1309.63 7.03L1317.7 0.355072L1325.98 -5.87784L1330.13 -8.99429L1334.42 -11.816L1338.72 -14.6304C1340.16 -15.5587 1341.57 -16.5533 1343.06 -17.3269L1351.87 -22.2705C1354.82 -23.8987 1357.84 -25.2175 1360.82 -26.7057C1372.81 -32.3713 1385.03 -37.0865 1397.3 -41.1018C1421.86 -49.1913 1446.59 -55.3873 1470.58 -64.5746C1473.6 -65.6281 1476.57 -66.8954 1479.53 -68.1478C1482.49 -69.4371 1485.5 -70.5349 1488.4 -72.0231L1497.16 -76.2594L1505.73 -81.0556C1508.63 -82.566 1511.37 -84.4742 1514.15 -86.2939C1516.9 -88.1579 1519.75 -89.8303 1522.39 -91.9669L1526.42 -95.0244C1527.75 -96.0632 1529.13 -97.0063 1530.4 -98.1777L1538.16 -104.934C1558.36 -123.927 1575.72 -148.291 1588.82 -176.31C1601.82 -204.409 1610.41 -236.141 1613.61 -269.118L1613.63 -269.133Z" fill="#021D32"/>
<path d="M279.738 483.842C269.459 509.923 253.744 532.431 234.783 548.507C225.324 556.618 215.011 562.991 204.235 567.625C193.452 572.296 182.318 574.772 171.407 577.505C127.803 587.09 87.1101 613.518 53.7912 651.409C20.2209 689.027 -5.94704 737.35 -24.3719 790.286C-42.8023 843.339 -53.9254 900.621 -59.9087 958.795C-56.7634 900.223 -47.0426 841.806 -29.2546 787.412C-20.3215 760.27 -9.34933 734.219 3.77376 710.083L6.21513 705.537C7.04196 704.034 7.93583 702.598 8.79618 701.132L13.9974 692.35L19.4723 683.862C20.3885 682.455 21.288 681.018 22.2209 679.633L25.0925 675.544C32.6177 664.478 40.8693 654.319 49.3498 644.535L55.8862 637.454L57.5175 635.686L59.2103 634.014L62.5958 630.669C67.0428 626.094 71.7803 622.042 76.434 617.842C78.7804 615.779 81.2274 613.923 83.6185 611.956L87.2274 609.045C88.4286 608.073 89.6912 607.24 90.9202 606.327L98.3449 600.971L105.971 596.123C107.244 595.327 108.507 594.495 109.798 593.736L113.703 591.584C116.312 590.177 118.893 588.667 121.53 587.341C126.854 584.88 132.116 582.169 137.569 580.216C148.34 575.803 159.491 572.864 170.497 570.58C181.503 568.222 192.424 566.012 202.939 561.982C213.441 557.974 223.598 552.205 233.028 544.742C252.017 530.073 268.157 508.907 279.75 483.828L279.738 483.842Z" fill="#021D32"/>
<path d="M1421.34 216.425C1465.15 204.747 1509.31 194.145 1554.21 190.962C1576.64 189.305 1599.22 189.798 1621.65 193.011C1627.25 193.946 1632.88 194.609 1638.42 196.061C1643.98 197.372 1649.57 198.463 1655.05 200.304L1663.31 202.809L1665.38 203.436L1667.42 204.217L1671.49 205.771L1679.64 208.888C1682.36 209.919 1685.03 211.171 1687.7 212.365C1709.02 222.282 1729.27 234.939 1749.99 245.379C1755.17 247.994 1760.37 250.47 1765.62 252.754C1770.92 254.802 1776.16 257.13 1781.54 258.765C1792.23 262.449 1803.13 265.065 1814.1 266.921C1858.01 274.193 1903.38 267.194 1945.2 246.255C1904.45 270.723 1858.39 280.058 1813.49 273.935L1809.28 273.397L1805.08 272.624C1802.29 272.079 1799.48 271.659 1796.7 271.003L1788.37 268.918C1786.98 268.601 1785.6 268.196 1784.22 267.746L1780.1 266.457C1774.57 264.88 1769.18 262.611 1763.73 260.615C1758.33 258.382 1752.99 255.958 1747.7 253.402C1726.59 243.036 1706.34 230.467 1685.43 220.911C1682.82 219.725 1680.22 218.487 1677.57 217.463L1669.63 214.376L1665.66 212.829L1663.67 212.056L1661.66 211.429L1653.59 208.932C1648.24 207.097 1642.76 206 1637.33 204.681C1631.9 203.222 1626.38 202.566 1620.91 201.513C1598.92 197.881 1576.67 197.195 1554.44 198.013C1509.94 199.84 1465.64 208.453 1421.35 216.454L1421.34 216.425Z" fill="#021D32"/>
<path d="M1476.69 250.455C1496.67 248.488 1516.68 247.088 1536.75 246.83C1556.82 246.675 1576.96 247.707 1596.97 251.251C1616.99 254.625 1636.84 260.88 1655.77 270.664L1662.83 274.451L1664.59 275.416L1666.31 276.521L1669.73 278.739L1676.58 283.181L1683.19 288.235C1685.38 289.959 1687.64 291.536 1689.76 293.385C1691.91 295.19 1694.02 297.076 1696.11 298.977C1700.29 302.794 1704.34 306.801 1708.33 310.868C1716.28 319.061 1723.95 327.585 1731.71 335.807C1739.44 344.088 1747.4 351.81 1755.62 359.096C1772.05 373.654 1789.55 386.179 1807.86 396.28C1812.45 398.755 1817.02 401.319 1821.72 403.448C1824.06 404.546 1826.38 405.717 1828.73 406.764L1835.82 409.777L1839.37 411.295L1842.96 412.635L1850.14 415.288C1852.53 416.179 1854.97 416.842 1857.39 417.631C1859.81 418.36 1862.22 419.207 1864.66 419.841C1884.14 425.322 1904.03 428.328 1924.06 429.116C1904.04 430.339 1883.88 428.512 1864.02 424.195C1844.17 419.73 1824.66 412.473 1805.84 402.807C1803.46 401.68 1801.16 400.339 1798.83 399.035L1791.86 395.123L1785.02 390.806C1782.75 389.354 1780.45 387.962 1778.24 386.348C1773.78 383.21 1769.27 380.174 1764.95 376.704C1762.78 375.01 1760.57 373.367 1758.42 371.621L1752.03 366.213C1743.56 358.934 1735.38 350.977 1727.53 342.689C1719.65 334.43 1711.97 326.001 1704.12 317.978C1700.21 313.948 1696.27 310.006 1692.23 306.271C1690.21 304.414 1688.18 302.573 1686.11 300.819C1684.07 299.021 1681.89 297.489 1679.79 295.809L1673.43 290.88L1666.82 286.548L1663.52 284.382L1661.87 283.299L1660.17 282.356L1653.36 278.569L1649.95 276.669C1648.8 276.094 1647.63 275.578 1646.47 275.033L1639.48 271.784C1637.18 270.62 1634.77 269.846 1632.41 268.903L1625.28 266.177C1620.47 264.645 1615.66 263.127 1610.82 261.72L1603.51 259.878C1601.08 259.267 1598.65 258.603 1596.18 258.176C1556.88 249.991 1516.69 250.374 1476.67 250.426L1476.69 250.455Z" fill="#021D32"/>
<path d="M-86.5181 160.049C-69.1659 122.777 -41.8582 93.6165 -10.5058 78.2479C5.13685 70.4531 21.5784 65.6053 38.1708 63.0267C54.7856 60.5807 71.5624 60.4996 88.2106 62.0099C121.552 65.0306 154.34 74.9399 185.899 89.0708C201.682 96.1804 217.173 104.439 232.218 113.958C247.274 123.47 261.867 134.071 276.23 145.027C290.582 156.012 304.744 167.306 319.091 178.048C326.247 183.463 333.493 188.628 340.767 193.689C348.086 198.625 355.438 203.473 362.935 207.857C366.656 210.17 370.444 212.122 374.215 214.163C376.086 215.239 378.042 216.013 379.952 216.956C381.88 217.818 383.773 218.849 385.734 219.578C389.634 221.155 393.517 222.798 397.489 224.05C401.422 225.494 405.427 226.526 409.416 227.661C417.439 229.628 425.523 231.278 433.679 232.052C437.746 232.634 441.841 232.715 445.92 233.031L452.059 233.127L455.126 233.164L458.193 233.061C466.384 232.95 474.562 232 482.719 230.873C490.864 229.583 498.982 227.889 507.043 225.774C515.094 223.601 523.116 221.155 531.033 218.171C538.971 215.305 546.809 211.931 554.591 208.358C585.776 194.102 615.464 174.408 643.928 152.129C636.984 158.075 629.995 163.946 622.855 169.494C615.71 175.027 608.464 180.354 601.101 185.393C586.402 195.546 571.268 204.637 555.748 212.52C547.971 216.403 540.111 220.006 532.133 223.159C524.178 226.415 516.099 229.134 507.971 231.58C499.836 233.997 491.602 235.861 483.328 237.356C475.037 238.69 466.713 239.832 458.344 240.126L455.21 240.296L452.07 240.325L445.791 240.355C441.607 240.119 437.411 240.119 433.238 239.618C424.869 238.962 416.55 237.356 408.288 235.448C404.176 234.335 400.047 233.326 395.986 231.889C391.891 230.652 387.874 229.016 383.846 227.44C381.818 226.71 379.863 225.679 377.868 224.817C375.891 223.874 373.874 223.093 371.935 222.017C368.03 219.969 364.097 217.987 360.304 215.696C344.985 206.862 330.259 196.511 315.795 185.747C301.32 174.983 287.107 163.748 272.8 152.858C258.531 141.888 244.118 131.345 229.33 121.93C214.553 112.463 199.279 104.366 183.787 97.1455C168.279 89.9622 152.474 83.8914 136.446 79.1025C120.407 74.4021 104.161 70.9025 87.8028 69.0312C71.4506 67.1598 54.9811 67.0051 38.6401 68.9059C22.3159 70.9394 6.13686 75.2641 -9.34939 82.3958L-12.2656 83.6851L-15.1148 85.2028L-20.8244 88.2382C-22.7239 89.2549 -24.534 90.5369 -26.3999 91.6715C-28.2379 92.8797 -30.1374 93.9333 -31.9195 95.2594L-37.2827 99.2526L-39.9699 101.249L-42.5454 103.482L-47.6963 107.954C-49.4282 109.427 -50.9868 111.203 -52.6405 112.809C-54.2606 114.481 -55.9422 116.058 -57.5121 117.811L-62.1322 123.219C-65.3167 126.689 -68.0318 130.8 -70.9592 134.631C-72.4564 136.517 -73.7525 138.632 -75.0933 140.702L-79.1101 146.928C-81.6632 151.208 -84.032 155.68 -86.5125 160.064L-86.5181 160.049Z" fill="#021D32"/>
<path d="M-89.3225 724.28C-86.4845 698.111 -80.0766 672.583 -71.0038 648.823C-61.8696 625.085 -50.0538 603.085 -36.0592 583.753C-22.126 564.34 -5.95264 547.696 11.6621 534.332C29.316 521.041 48.5509 511.286 68.5009 505.761C88.4677 500.397 108.686 498.924 128.653 497.517C148.631 496.242 168.513 494.776 187.927 489.847C226.721 479.842 263.425 455.404 293.107 419.959C265.403 458.167 228.604 485.22 189.017 496.75C169.201 502.644 148.971 504.28 129.027 506.063C109.071 507.72 89.1772 509.275 69.8864 514.609C50.6236 519.766 32.0423 529.145 14.8354 541.766C-2.42744 554.312 -18.221 570.307 -32.2491 588.667C-60.1992 625.482 -80.747 672.627 -89.3225 724.288L-89.3225 724.28Z" fill="#021D32"/>
<path d="M743.834 194.283C747.991 188.676 751.583 182.436 754.544 175.709C757.365 168.872 759.589 161.659 761.164 154.203C762.595 146.696 763.455 139.034 763.634 131.342C763.678 123.65 763.17 115.973 761.924 108.51C760.561 101.091 758.645 93.8784 755.974 87.1666C753.209 80.5948 749.851 74.2956 746.114 68.4606C742.337 62.6697 738.281 57.2031 733.907 52.1637C729.516 47.1538 724.912 42.446 720.147 38.0034C701.052 20.2183 679.47 6.65473 660.236 -13.5838C655.42 -18.5936 650.861 -24.1708 646.593 -30.1827C645.554 -31.7225 644.436 -33.1739 643.459 -34.7947L640.475 -39.6057C638.621 -42.9579 636.688 -46.2659 635.073 -49.8539C633.319 -53.3387 631.883 -57.0593 630.375 -60.7504C629.676 -62.6217 629.051 -64.5447 628.386 -66.4455L627.414 -69.3114L626.581 -72.2437C624.196 -80.0164 622.71 -88.128 621.352 -96.2396L634.861 -99.3044C635.811 -92.0843 636.839 -84.8347 638.677 -77.9608L639.308 -75.3528L640.068 -72.811C640.587 -71.1238 641.062 -69.4072 641.61 -67.7348C642.811 -64.4562 643.928 -61.1114 645.358 -57.9802C646.649 -54.7385 648.252 -51.74 649.772 -48.6677L652.263 -44.2325C653.073 -42.7295 654.04 -41.3739 654.917 -39.9299C658.554 -34.2864 662.521 -28.9081 666.85 -23.9498C684.074 -3.85129 705.191 11.2226 724.225 30.7464C728.98 35.6384 733.583 40.8325 737.968 46.3508C742.337 51.8985 746.388 57.903 750.119 64.2243C753.812 70.5972 757.075 77.3605 759.801 84.6543C762.388 91.9997 764.136 99.765 765.276 107.633C766.293 115.546 766.528 123.562 766.192 131.512C765.723 139.454 764.544 147.278 762.801 154.852C760.913 162.374 758.377 169.572 755.276 176.298C752.03 182.922 748.181 188.963 743.829 194.297L743.834 194.283Z" fill="#021D32"/>
<path d="M207.391 278.983C198.972 291.205 189.531 302.36 178.86 311.296C168.217 320.233 156.206 326.672 143.569 329.369C130.977 332.338 117.68 330.467 105.479 325.412C99.3505 322.9 93.4566 319.71 87.6464 316.417C81.8754 313.079 76.1714 309.602 70.4842 306.404C64.7802 303.273 59.0762 300.23 53.2549 298.153C50.3722 296.908 47.4168 296.296 44.5062 295.397L40.0871 294.616L37.8859 294.233L35.668 294.123L31.249 293.894L26.7461 294.123C25.9975 294.167 25.2433 294.189 24.4947 294.255L22.2545 294.557C20.7628 294.778 19.2656 294.918 17.7795 295.198C14.8186 295.869 11.8465 296.37 8.93584 297.35C7.4833 297.821 5.99725 298.138 4.56705 298.735L0.254143 300.378C-5.42191 302.846 -11.0365 305.609 -16.3047 309.285L-18.3048 310.589L-20.2378 312.055L-24.0926 314.995C-26.5451 317.198 -29.0982 319.194 -31.4055 321.64C-40.9308 330.894 -48.9197 342.557 -55.0706 355.538L-66.5959 345.747C-58.9701 331.13 -49.3722 318.472 -38.3609 308.755C-35.6793 306.183 -32.7631 304.106 -29.953 301.837L-25.5674 298.823L-23.3719 297.342L-21.1149 296.024C-15.1539 292.332 -8.88565 289.651 -2.58389 287.337L2.19272 285.82C3.77374 285.274 5.40506 285.009 7.00843 284.597C10.2152 283.735 13.4778 283.359 16.7125 282.836C18.3382 282.629 19.9751 282.57 21.6008 282.431L24.0422 282.254C24.8578 282.224 25.6735 282.254 26.4891 282.254L31.3831 282.298L36.344 282.843L38.8189 283.13L41.2603 283.698C42.8804 284.088 44.5117 284.442 46.1207 284.869C49.2772 286.026 52.5007 286.917 55.5343 288.428C61.7355 291.058 67.5679 294.594 73.3055 298.153C79.0262 301.778 84.5793 305.587 90.166 309.219C95.7471 312.785 101.351 316.21 107.11 318.966C118.602 324.455 130.854 326.974 143.094 324.875C155.295 323.018 167.195 317.507 177.972 309.337C188.771 301.173 198.553 290.667 207.386 278.96L207.391 278.983Z" fill="#021D32"/>
<path d="M1476.69 432.166C1501.3 427.274 1525.96 422.331 1550.9 420.474C1575.77 418.625 1601.07 419.907 1625.49 427.974C1637.71 431.931 1649.56 437.943 1660.79 445.443C1672.03 452.928 1682.68 461.821 1692.91 471.354C1713.39 490.436 1732.31 512.045 1752.27 531.163C1772.22 550.113 1794.12 565.43 1817.18 576.304C1840.24 587.193 1864.43 593.61 1888.83 595.076C1913.3 596.638 1938.09 594.236 1963.29 594.332C1975.89 594.384 1988.62 595.069 2001.36 597.301C2014.08 599.519 2026.81 603.35 2039.04 609.391L2034.07 626.233C2023.06 620.42 2011.43 616.516 1999.52 614.07C1987.6 611.609 1975.41 610.563 1963.12 610.143C1938.53 609.281 1913.49 610.961 1888.21 608.603C1862.87 606.319 1837.82 598.871 1814.21 586.891C1790.57 574.926 1768.32 558.467 1748.21 538.428C1728.22 518.329 1709.8 496.278 1689.91 476.836C1679.98 467.125 1669.68 458.1 1658.81 450.445C1647.96 442.776 1636.53 436.58 1624.63 432.336C1600.81 423.694 1575.77 421.631 1550.98 422.721C1526.13 423.812 1501.39 428.004 1476.7 432.152L1476.69 432.166Z" fill="#021D32"/>
</g>
</g>
</svg>
