<svg width="107" height="107" viewBox="0 0 107 107" fill="none" xmlns="http://www.w3.org/2000/svg">
<path d="M83.4283 23.0135L56.1796 10.4603C43.6396 4.68324 28.7906 10.1657 23.0136 22.7058L10.4604 49.9544C4.68331 62.4945 10.1658 77.3434 22.7058 83.1205L49.9545 95.6737C62.4946 101.451 77.3435 95.9683 83.1206 83.4283L95.6738 56.1796C101.451 43.6395 95.9684 28.7906 83.4283 23.0135Z" fill="white"/>
<path d="M83.4283 23.0135L56.1796 10.4603C43.6396 4.68324 28.7906 10.1657 23.0136 22.7058L10.4604 49.9544C4.68331 62.4945 10.1658 77.3434 22.7058 83.1205L49.9545 95.6737C62.4946 101.451 77.3435 95.9683 83.1206 83.4283L95.6738 56.1796C101.451 43.6395 95.9684 28.7906 83.4283 23.0135Z" fill="url(#paint0_radial_346_10919)"/>
<path style="mix-blend-mode:color" d="M83.4283 23.0135L56.1796 10.4603C43.6396 4.68324 28.7906 10.1657 23.0136 22.7058L10.4604 49.9544C4.68331 62.4945 10.1658 77.3434 22.7058 83.1205L49.9545 95.6737C62.4946 101.451 77.3435 95.9683 83.1206 83.4283L95.6738 56.1796C101.451 43.6395 95.9684 28.7906 83.4283 23.0135Z" fill="url(#paint1_linear_346_10919)"/>
<path style="mix-blend-mode:soft-light" opacity="0.6" d="M83.4283 23.0135L56.1796 10.4603C43.6396 4.68324 28.7906 10.1657 23.0136 22.7058L10.4604 49.9544C4.68331 62.4945 10.1658 77.3434 22.7058 83.1205L49.9545 95.6737C62.4946 101.451 77.3435 95.9683 83.1206 83.4283L95.6738 56.1796C101.451 43.6395 95.9684 28.7906 83.4283 23.0135Z" fill="url(#paint2_linear_346_10919)"/>
<path d="M58.2235 41.8739C52.0418 39.0261 44.7218 41.7288 41.8735 47.9116C39.0251 54.0944 41.7283 61.4133 47.91 64.2611C54.0917 67.109 61.4117 64.4063 64.2595 58.2246C67.1074 52.0429 64.4052 44.7218 58.2235 41.8739ZM49.7191 60.3341C45.706 58.4853 43.9517 53.7338 45.8005 49.7207C47.6493 45.7076 52.4008 43.9533 56.4139 45.8021C60.427 47.6509 62.1813 52.4024 60.3325 56.4155C58.4837 60.4285 53.7322 62.1829 49.7191 60.3341ZM72.6784 47.9979C72.013 49.4422 70.3018 50.074 68.8576 49.4086C67.4133 48.7432 66.7815 47.032 67.4469 45.5878C68.1122 44.1435 69.8234 43.5117 71.2677 44.1771C72.7119 44.8424 73.3443 46.5525 72.6784 47.9979ZM78.8737 54.0636C79.8372 51.6956 80.1986 49.9406 80.2983 48.3062C80.4007 46.6162 80.2165 45.057 79.563 43.287C78.9095 41.517 78.0368 40.2111 76.8602 38.9942C75.7212 37.8163 74.3071 36.7177 72.0349 35.5435C69.7587 34.3661 69.0282 33.9985 63.1081 31.2711C57.188 28.5438 56.435 28.2281 54.0598 27.2626C51.6908 26.2986 49.9368 25.9377 48.3025 25.838C46.6129 25.7344 45.0532 25.9198 43.2832 26.5733C41.5121 27.2263 40.2079 28.0984 38.9905 29.2761C37.812 30.4135 36.7139 31.8292 35.5403 34.1003C34.3629 36.3765 33.9953 37.1069 31.2679 43.0271C28.5406 48.9472 28.2243 49.7013 27.2594 52.0753C26.2953 54.4444 25.9345 56.1983 25.8347 57.8327C25.7307 59.5234 25.9154 61.0814 26.57 62.8519C27.2235 64.6219 28.0951 65.9273 29.2729 67.1447C30.4119 68.3226 31.826 69.4212 34.0971 70.5949C36.3733 71.7723 37.1037 72.1399 43.0238 74.8673C48.944 77.5946 49.6981 77.9108 52.0721 78.8758C54.4401 79.8393 56.1951 80.2007 57.8306 80.301C59.5195 80.4028 61.0798 80.2192 62.8498 79.5657C64.6198 78.9122 65.9241 78.04 67.1426 76.8628C68.32 75.7249 69.4186 74.3109 70.5928 72.0386C71.7702 69.7624 72.1367 69.0315 74.864 63.1113C77.5914 57.1912 77.9087 56.4376 78.8737 54.0636ZM66.7521 70.051C65.6758 72.1313 64.7884 73.1222 64.1361 73.7527C63.2718 74.5876 62.4653 75.0969 61.3517 75.5081C60.2365 75.9198 59.2937 76.0574 58.0941 75.9844C57.1887 75.9291 55.8707 75.7515 53.7008 74.8698C51.3541 73.916 50.6541 73.6207 44.8335 70.9391C39.0128 68.2576 38.3345 67.918 36.0847 66.7542C34.0039 65.679 33.0124 64.7927 32.3825 64.1393C31.5464 63.2745 31.0388 62.4674 30.6276 61.3538C30.2153 60.2397 30.0778 59.2969 30.1513 58.0962C30.2066 57.1908 30.3842 55.8728 31.2659 53.7029C32.2197 51.3562 32.515 50.6562 35.1966 44.8356C37.8781 39.015 38.2176 38.3367 39.382 36.0856C40.4583 34.0054 41.3441 33.015 41.9969 32.3835C42.8612 31.5485 43.6688 31.0398 44.7824 30.6286C45.8971 30.218 46.8393 30.0788 48.0395 30.1534C48.9449 30.2087 50.2623 30.3847 52.4333 31.2669C54.78 32.2207 55.48 32.516 61.2995 35.197C67.119 37.878 67.7984 38.2181 70.0494 39.3825C72.1297 40.4588 73.1195 41.3457 73.7511 41.9985C74.5866 42.8617 75.0953 43.6693 75.5065 44.7829C75.9188 45.897 76.0546 46.8404 75.9817 48.0399C75.9264 48.9454 75.7499 50.2639 74.8682 52.4337C73.9139 54.7816 73.6179 55.4799 70.9364 61.3006C68.2549 67.1212 67.9165 67.8 66.7521 70.051Z" fill="white"/>
<defs>
<radialGradient id="paint0_radial_346_10919" cx="0" cy="0" r="1" gradientUnits="userSpaceOnUse" gradientTransform="translate(96.2572 37.1233) rotate(24.735) scale(92.1588)">
<stop stop-color="#D7D7D7"/>
<stop offset="1" stop-color="#393939"/>
</radialGradient>
<linearGradient id="paint1_linear_346_10919" x1="9.71378" y1="69.0737" x2="96.4187" y2="37.0609" gradientUnits="userSpaceOnUse">
<stop stop-color="#B314A3"/>
<stop offset="1" stop-color="#FC971E"/>
</linearGradient>
<linearGradient id="paint2_linear_346_10919" x1="9.71378" y1="69.0737" x2="96.4187" y2="37.0609" gradientUnits="userSpaceOnUse">
<stop stop-color="#B314A3"/>
<stop offset="1" stop-color="#FC971E"/>
</linearGradient>
</defs>
</svg>
