<svg width="105" height="105" viewBox="0 0 105 105" fill="none" xmlns="http://www.w3.org/2000/svg">
<path d="M50.7927 9.59032L23.0869 21.0995C10.3365 26.3962 4.29401 41.0262 9.59064 53.7766L21.0999 81.4824C26.3965 94.2328 41.0265 100.275 53.7769 94.9787L81.4827 83.4694C94.2331 78.1728 100.276 63.5428 94.979 50.7924L83.4697 23.0866C78.1731 10.3362 63.5431 4.29369 50.7927 9.59032Z" fill="white"/>
<path d="M50.7927 9.59032L23.0869 21.0995C10.3365 26.3962 4.29401 41.0262 9.59064 53.7766L21.0999 81.4824C26.3965 94.2328 41.0265 100.275 53.7769 94.9787L81.4827 83.4694C94.2331 78.1728 100.276 63.5428 94.979 50.7924L83.4697 23.0866C78.1731 10.3362 63.5431 4.29369 50.7927 9.59032Z" fill="url(#paint0_radial_346_10928)"/>
<g style="mix-blend-mode:overlay" opacity="0.9">
<path d="M50.7927 9.59032L23.0869 21.0995C10.3365 26.3962 4.29401 41.0262 9.59064 53.7766L21.0999 81.4824C26.3965 94.2328 41.0265 100.275 53.7769 94.9787L81.4827 83.4694C94.2331 78.1728 100.276 63.5428 94.979 50.7924L83.4697 23.0866C78.1731 10.3362 63.5431 4.29369 50.7927 9.59032Z" fill="#333333"/>
</g>
<path d="M66.4663 32.7552L69.5377 40.1488L69.5309 40.1516C69.1829 40.3375 68.8256 40.5072 68.4617 40.6611C64.4609 42.3231 59.8918 41.8568 56.3088 39.4203L63.8959 57.6844C66.9927 65.1393 63.4603 73.6942 56.0042 76.7915C48.5481 79.8889 39.9944 76.356 36.897 68.8999C33.7997 61.4438 37.3326 52.89 44.7887 49.7927C45.0706 49.6756 45.356 49.5864 45.6409 49.4893L48.4044 56.1419C48.1134 56.2241 47.8205 56.2858 47.5352 56.4043C43.7299 57.9851 41.9265 62.3513 43.5073 66.1566C45.0881 69.9619 49.4543 71.7652 53.2596 70.1845C57.0649 68.6037 59.1803 64.2092 57.5991 60.4027L44.7801 29.3547L51.1439 26.7111C54.1148 32.1687 60.5687 34.7147 66.4652 32.7557L66.4663 32.7552Z" fill="white"/>
<defs>
<radialGradient id="paint0_radial_346_10928" cx="0" cy="0" r="1" gradientUnits="userSpaceOnUse" gradientTransform="translate(70.676 9.39502) rotate(-22.5584) scale(93.0917)">
<stop stop-color="#D1D1D1"/>
<stop offset="1" stop-color="#3F3F3F"/>
</radialGradient>
</defs>
</svg>
