<svg width="111" height="111" viewBox="0 0 111 111" fill="none" xmlns="http://www.w3.org/2000/svg">
<path d="M89.8515 30.1459L64.7605 13.7032C53.2119 6.13513 37.7147 9.362 30.1467 20.9106L13.7039 46.0017C6.13586 57.5503 9.36273 73.0474 20.9113 80.6155L46.0024 97.0582C57.551 104.626 73.0482 101.399 80.6162 89.8508L97.059 64.7597C104.627 53.2111 101.4 37.714 89.8515 30.1459Z" fill="white"/>
<path d="M89.8515 30.1459L64.7605 13.7032C53.2119 6.13513 37.7147 9.362 30.1467 20.9106L13.7039 46.0017C6.13586 57.5503 9.36273 73.0474 20.9113 80.6155L46.0024 97.0582C57.551 104.626 73.0482 101.399 80.6162 89.8508L97.059 64.7597C104.627 53.2111 101.4 37.714 89.8515 30.1459Z" fill="url(#paint0_radial_346_10910)"/>
<g style="mix-blend-mode:color">
<path d="M89.8515 30.1459L64.7605 13.7032C53.2119 6.13513 37.7147 9.362 30.1467 20.9106L13.7039 46.0017C6.13586 57.5503 9.36273 73.0474 20.9113 80.6155L46.0024 97.0582C57.551 104.626 73.0482 101.399 80.6162 89.8508L97.059 64.7597C104.627 53.2111 101.4 37.714 89.8515 30.1459Z" fill="#2968CC"/>
</g>
<g style="mix-blend-mode:soft-light" opacity="0.6">
<path d="M89.8515 30.1459L64.7605 13.7032C53.2119 6.13513 37.7147 9.362 30.1467 20.9106L13.7039 46.0017C6.13586 57.5503 9.36273 73.0474 20.9113 80.6155L46.0024 97.0582C57.551 104.626 73.0482 101.399 80.6162 89.8508L97.059 64.7597C104.627 53.2111 101.4 37.714 89.8515 30.1459Z" fill="#2968CC"/>
</g>
<path fill-rule="evenodd" clip-rule="evenodd" d="M64.5336 52.8171L60.4206 59.0934L69.6988 65.1736L61.8772 73.8756L54.0814 68.7669L38.6836 92.2634L28.2298 85.4128L43.6276 61.9163L35.1308 56.3481L41.47 46.6747L49.9668 52.2428L54.7983 44.8701C60.2957 36.4814 68.3262 35.1266 75.9665 40.1335C79.6271 42.5324 83.0282 45.6956 83.0282 45.6956L77.6327 53.9289L73.4121 51.163C69.2533 48.4376 66.2667 50.1725 64.5336 52.8171Z" fill="white"/>
<defs>
<radialGradient id="paint0_radial_346_10910" cx="0" cy="0" r="1" gradientUnits="userSpaceOnUse" gradientTransform="translate(100.455 45.9988) rotate(33.2377) scale(92.1588 92.1588)">
<stop stop-color="#D7D7D7"/>
<stop offset="1" stop-color="#393939"/>
</radialGradient>
</defs>
</svg>
