<svg width="106" height="106" viewBox="0 0 106 106" fill="none" xmlns="http://www.w3.org/2000/svg">
<path d="M82.856 22.4417L55.4658 10.2004C42.8606 4.56688 28.0752 10.2185 22.4417 22.8237L10.2004 50.2139C4.56685 62.8191 10.2185 77.6045 22.8237 83.238L50.2139 95.4793C62.8191 101.113 77.6045 95.4612 83.238 82.856L95.4793 55.4658C101.113 42.8606 95.4612 28.0752 82.856 22.4417Z" fill="white"/>
<path d="M82.856 22.4417L55.4658 10.2004C42.8606 4.56688 28.0752 10.2185 22.4417 22.8237L10.2004 50.2139C4.56685 62.8191 10.2185 77.6045 22.8237 83.238L50.2139 95.4793C62.8191 101.113 77.6045 95.4612 83.238 82.856L95.4793 55.4658C101.113 42.8606 95.4612 28.0752 82.856 22.4417Z" fill="url(#paint0_radial_346_10935)"/>
<g style="mix-blend-mode:color">
<path d="M82.856 22.4417L55.4658 10.2004C42.8606 4.56688 28.0752 10.2185 22.4417 22.8237L10.2004 50.2139C4.56685 62.8191 10.2185 77.6045 22.8237 83.238L50.2139 95.4793C62.8191 101.113 77.6045 95.4612 83.238 82.856L95.4793 55.4658C101.113 42.8606 95.4612 28.0752 82.856 22.4417Z" fill="#1DA1F2"/>
</g>
<g style="mix-blend-mode:soft-light" opacity="0.6">
<path d="M82.856 22.4417L55.4658 10.2004C42.8606 4.56688 28.0752 10.2185 22.4417 22.8237L10.2004 50.2139C4.56685 62.8191 10.2185 77.6045 22.8237 83.238L50.2139 95.4793C62.8191 101.113 77.6045 95.4612 83.238 82.856L95.4793 55.4658C101.113 42.8606 95.4612 28.0752 82.856 22.4417Z" fill="#1DA1F2"/>
</g>
<path d="M37.0859 66.7187C53.2789 73.9557 68.13 64.4982 73.3291 52.865C73.4994 52.484 73.6612 52.1007 73.8131 51.7156C76.0877 51.2412 78.2741 50.358 80.2429 49.12C78.3519 49.1161 76.4431 48.8292 74.5683 48.2461C76.8724 47.9682 79.0388 46.8671 80.6158 45.1063C78.4641 45.3539 76.253 45.2459 74.0705 44.7451C73.2285 42.3156 71.4188 40.2234 68.8872 39.092C64.0251 36.9191 58.32 39.0998 56.1481 43.9596C55.8392 44.6507 55.6165 45.3572 55.4793 46.0684C48.3274 42.4312 43.4052 36.028 41.4443 28.7603C40.1054 29.7231 38.9951 31.04 38.2745 32.6525C36.9095 35.7066 37.2583 39.0979 38.9163 41.7316C37.4925 41.0413 36.3124 40.038 35.4217 38.8486C35.4029 38.8847 35.3863 38.9218 35.3692 38.96C33.4634 43.2243 34.9075 48.1404 38.5752 50.7475C37.746 50.6182 36.9197 50.3797 36.1163 50.0207C35.5488 49.7671 35.0222 49.4643 34.5319 49.1225C34.0889 53.1211 36.2022 57.119 40.0231 58.9129C35.9543 59.9269 31.5294 59.6384 27.4044 57.7949C26.6943 57.4775 26.0112 57.1237 25.3591 56.7338C28.14 60.9722 32.1137 64.4966 37.087 66.7192" fill="white"/>
<defs>
<radialGradient id="paint0_radial_346_10935" cx="0" cy="0" r="1" gradientUnits="userSpaceOnUse" gradientTransform="translate(95.8451 36.4041) rotate(24.0809) scale(92.1588)">
<stop stop-color="#D7D7D7"/>
<stop offset="1" stop-color="#393939"/>
</radialGradient>
</defs>
</svg>
