<svg width="319" height="22" viewBox="0 0 319 22" fill="none" xmlns="http://www.w3.org/2000/svg">
<path d="M315 20.9985V21.4985H315.5V20.9985H315ZM315.354 0.145958C315.158 -0.0493038 314.842 -0.0493038 314.646 0.145958L311.464 3.32794C311.269 3.5232 311.269 3.83978 311.464 4.03505C311.66 4.23031 311.976 4.23031 312.172 4.03505L315 1.20662L317.828 4.03505C318.024 4.23031 318.34 4.23031 318.536 4.03505C318.731 3.83978 318.731 3.5232 318.536 3.32794L315.354 0.145958ZM0 21.4985H0.996835V20.4985H0V21.4985ZM2.99051 21.4985H4.98418V20.4985H2.99051V21.4985ZM6.97785 21.4985H8.97152V20.4985H6.97785V21.4985ZM10.9652 21.4985H12.9589V20.4985H10.9652V21.4985ZM14.9525 21.4985H16.9462V20.4985H14.9525V21.4985ZM18.9399 21.4985H20.9335V20.4985H18.9399V21.4985ZM22.9272 21.4985H24.9209V20.4985H22.9272V21.4985ZM26.9146 21.4985H28.9082V20.4985H26.9146V21.4985ZM30.9019 21.4985H32.8956V20.4985H30.9019V21.4985ZM34.8892 21.4985H36.8829V20.4985H34.8892V21.4985ZM38.8766 21.4985H40.8703V20.4985H38.8766V21.4985ZM42.8639 21.4985H44.8576V20.4985H42.8639V21.4985ZM46.8513 21.4985H48.8449V20.4985H46.8513V21.4985ZM50.8386 21.4985H52.8323V20.4985H50.8386V21.4985ZM54.826 21.4985H56.8196V20.4985H54.826V21.4985ZM58.8133 21.4985H60.807V20.4985H58.8133V21.4985ZM62.8006 21.4985H64.7943V20.4985H62.8006V21.4985ZM66.788 21.4985H68.7817V20.4985H66.788V21.4985ZM70.7753 21.4985H72.769V20.4985H70.7753V21.4985ZM74.7627 21.4985H76.7563V20.4985H74.7627V21.4985ZM78.75 21.4985H80.7437V20.4985H78.75V21.4985ZM82.7373 21.4985H84.731V20.4985H82.7373V21.4985ZM86.7247 21.4985H88.7183V20.4985H86.7247V21.4985ZM90.712 21.4985H92.7057V20.4985H90.712V21.4985ZM94.6993 21.4985H96.693V20.4985H94.6993V21.4985ZM98.6867 21.4985H100.68V20.4985H98.6867V21.4985ZM102.674 21.4985H104.668V20.4985H102.674V21.4985ZM106.661 21.4985H108.655V20.4985H106.661V21.4985ZM110.649 21.4985H112.642V20.4985H110.649V21.4985ZM114.636 21.4985H116.63V20.4985H114.636V21.4985ZM118.623 21.4985H120.617V20.4985H118.623V21.4985ZM122.611 21.4985H124.604V20.4985H122.611V21.4985ZM126.598 21.4985H128.592V20.4985H126.598V21.4985ZM130.585 21.4985H132.579V20.4985H130.585V21.4985ZM134.573 21.4985H136.566V20.4985H134.573V21.4985ZM138.56 21.4985H140.554V20.4985H138.56V21.4985ZM142.547 21.4985H144.541V20.4985H142.547V21.4985ZM146.535 21.4985H148.528V20.4985H146.535V21.4985ZM150.522 21.4985H152.516V20.4985H150.522V21.4985ZM154.509 21.4985H156.503V20.4985H154.509V21.4985ZM158.497 21.4985H160.49V20.4985H158.497V21.4985ZM162.484 21.4985H164.478V20.4985H162.484V21.4985ZM166.471 21.4985H168.465V20.4985H166.471V21.4985ZM170.459 21.4985H172.452V20.4985H170.459V21.4985ZM174.446 21.4985H176.44V20.4985H174.446V21.4985ZM178.433 21.4985H180.427V20.4985H178.433V21.4985ZM182.421 21.4985H184.414V20.4985H182.421V21.4985ZM186.408 21.4985H188.402V20.4985H186.408V21.4985ZM190.395 21.4985H192.389V20.4985H190.395V21.4985ZM194.383 21.4985H196.376V20.4985H194.383V21.4985ZM198.37 21.4985H200.364V20.4985H198.37V21.4985ZM202.357 21.4985H204.351V20.4985H202.357V21.4985ZM206.345 21.4985H208.338V20.4985H206.345V21.4985ZM210.332 21.4985H212.326V20.4985H210.332V21.4985ZM214.319 21.4985H216.313V20.4985H214.319V21.4985ZM218.307 21.4985H220.3V20.4985H218.307V21.4985ZM222.294 21.4985H224.288V20.4985H222.294V21.4985ZM226.281 21.4985H228.275V20.4985H226.281V21.4985ZM230.269 21.4985H232.262V20.4985H230.269V21.4985ZM234.256 21.4985H236.25V20.4985H234.256V21.4985ZM238.243 21.4985H240.237V20.4985H238.243V21.4985ZM242.231 21.4985H244.224V20.4985H242.231V21.4985ZM246.218 21.4985H248.212V20.4985H246.218V21.4985ZM250.205 21.4985H252.199V20.4985H250.205V21.4985ZM254.193 21.4985H256.186V20.4985H254.193V21.4985ZM258.18 21.4985H260.174V20.4985H258.18V21.4985ZM262.167 21.4985H264.161V20.4985H262.167V21.4985ZM266.155 21.4985H268.149V20.4985H266.155V21.4985ZM270.142 21.4985H272.136V20.4985H270.142V21.4985ZM274.13 21.4985H276.123V20.4985H274.13V21.4985ZM278.117 21.4985H280.111V20.4985H278.117V21.4985ZM282.104 21.4985H284.098V20.4985H282.104V21.4985ZM286.092 21.4985H288.085V20.4985H286.092V21.4985ZM290.079 21.4985H292.073V20.4985H290.079V21.4985ZM294.066 21.4985H296.06V20.4985H294.066V21.4985ZM298.054 21.4985H300.047V20.4985H298.054V21.4985ZM302.041 21.4985H304.035V20.4985H302.041V21.4985ZM306.029 21.4985H308.022V20.4985H306.029V21.4985ZM310.016 21.4985H312.01V20.4985H310.016V21.4985ZM314.003 21.4985H315V20.4985H314.003V21.4985ZM315.5 20.9985V19.9736H314.5V20.9985H315.5ZM315.5 17.9237V15.8738H314.5V17.9237H315.5ZM315.5 13.8239V11.774H314.5V13.8239H315.5ZM315.5 9.72407V7.67417H314.5V9.72407H315.5ZM315.5 5.62427V3.57437H314.5V5.62427H315.5ZM315.5 1.52446V0.499512H314.5V1.52446H315.5Z" fill="#FE2C55"/>
</svg>
