<svg width="319" height="21" viewBox="0 0 319 21" fill="none" xmlns="http://www.w3.org/2000/svg">
<path d="M315 0.997803H315.5V0.497803H315V0.997803ZM314.646 20.3531C314.842 20.5483 315.158 20.5483 315.354 20.3531L318.536 17.1711C318.731 16.9758 318.731 16.6592 318.536 16.464C318.34 16.2687 318.024 16.2687 317.828 16.464L315 19.2924L312.172 16.464C311.976 16.2687 311.66 16.2687 311.464 16.464C311.269 16.6592 311.269 16.9758 311.464 17.1711L314.646 20.3531ZM0 1.4978H0.996835V0.497803H0V1.4978ZM2.99051 1.4978H4.98418V0.497803H2.99051V1.4978ZM6.97785 1.4978H8.97152V0.497803H6.97785V1.4978ZM10.9652 1.4978H12.9589V0.497803H10.9652V1.4978ZM14.9525 1.4978H16.9462V0.497803H14.9525V1.4978ZM18.9399 1.4978H20.9335V0.497803H18.9399V1.4978ZM22.9272 1.4978H24.9209V0.497803H22.9272V1.4978ZM26.9146 1.4978H28.9082V0.497803H26.9146V1.4978ZM30.9019 1.4978H32.8956V0.497803H30.9019V1.4978ZM34.8892 1.4978H36.8829V0.497803H34.8892V1.4978ZM38.8766 1.4978H40.8703V0.497803H38.8766V1.4978ZM42.8639 1.4978H44.8576V0.497803H42.8639V1.4978ZM46.8513 1.4978H48.8449V0.497803H46.8513V1.4978ZM50.8386 1.4978H52.8323V0.497803H50.8386V1.4978ZM54.826 1.4978H56.8196V0.497803H54.826V1.4978ZM58.8133 1.4978H60.807V0.497803H58.8133V1.4978ZM62.8006 1.4978H64.7943V0.497803H62.8006V1.4978ZM66.788 1.4978H68.7817V0.497803H66.788V1.4978ZM70.7753 1.4978H72.769V0.497803H70.7753V1.4978ZM74.7627 1.4978H76.7563V0.497803H74.7627V1.4978ZM78.75 1.4978H80.7437V0.497803H78.75V1.4978ZM82.7373 1.4978H84.731V0.497803H82.7373V1.4978ZM86.7247 1.4978H88.7183V0.497803H86.7247V1.4978ZM90.712 1.4978H92.7057V0.497803H90.712V1.4978ZM94.6993 1.4978H96.693V0.497803H94.6993V1.4978ZM98.6867 1.4978H100.68V0.497803H98.6867V1.4978ZM102.674 1.4978H104.668V0.497803H102.674V1.4978ZM106.661 1.4978H108.655V0.497803H106.661V1.4978ZM110.649 1.4978H112.642V0.497803H110.649V1.4978ZM114.636 1.4978H116.63V0.497803H114.636V1.4978ZM118.623 1.4978H120.617V0.497803H118.623V1.4978ZM122.611 1.4978H124.604V0.497803H122.611V1.4978ZM126.598 1.4978H128.592V0.497803H126.598V1.4978ZM130.585 1.4978H132.579V0.497803H130.585V1.4978ZM134.573 1.4978H136.566V0.497803H134.573V1.4978ZM138.56 1.4978H140.554V0.497803H138.56V1.4978ZM142.547 1.4978H144.541V0.497803H142.547V1.4978ZM146.535 1.4978H148.528V0.497803H146.535V1.4978ZM150.522 1.4978H152.516V0.497803H150.522V1.4978ZM154.509 1.4978H156.503V0.497803H154.509V1.4978ZM158.497 1.4978H160.49V0.497803H158.497V1.4978ZM162.484 1.4978H164.478V0.497803H162.484V1.4978ZM166.471 1.4978H168.465V0.497803H166.471V1.4978ZM170.459 1.4978H172.452V0.497803H170.459V1.4978ZM174.446 1.4978H176.44V0.497803H174.446V1.4978ZM178.433 1.4978H180.427V0.497803H178.433V1.4978ZM182.421 1.4978H184.414V0.497803H182.421V1.4978ZM186.408 1.4978H188.402V0.497803H186.408V1.4978ZM190.395 1.4978H192.389V0.497803H190.395V1.4978ZM194.383 1.4978H196.376V0.497803H194.383V1.4978ZM198.37 1.4978H200.364V0.497803H198.37V1.4978ZM202.357 1.4978H204.351V0.497803H202.357V1.4978ZM206.345 1.4978H208.338V0.497803H206.345V1.4978ZM210.332 1.4978H212.326V0.497803H210.332V1.4978ZM214.319 1.4978H216.313V0.497803H214.319V1.4978ZM218.307 1.4978H220.3V0.497803H218.307V1.4978ZM222.294 1.4978H224.288V0.497803H222.294V1.4978ZM226.281 1.4978H228.275V0.497803H226.281V1.4978ZM230.269 1.4978H232.262V0.497803H230.269V1.4978ZM234.256 1.4978H236.25V0.497803H234.256V1.4978ZM238.243 1.4978H240.237V0.497803H238.243V1.4978ZM242.231 1.4978H244.224V0.497803H242.231V1.4978ZM246.218 1.4978H248.212V0.497803H246.218V1.4978ZM250.205 1.4978H252.199V0.497803H250.205V1.4978ZM254.193 1.4978H256.186V0.497803H254.193V1.4978ZM258.18 1.4978H260.174V0.497803H258.18V1.4978ZM262.167 1.4978H264.161V0.497803H262.167V1.4978ZM266.155 1.4978H268.149V0.497803H266.155V1.4978ZM270.142 1.4978H272.136V0.497803H270.142V1.4978ZM274.13 1.4978H276.123V0.497803H274.13V1.4978ZM278.117 1.4978H280.111V0.497803H278.117V1.4978ZM282.104 1.4978H284.098V0.497803H282.104V1.4978ZM286.092 1.4978H288.085V0.497803H286.092V1.4978ZM290.079 1.4978H292.073V0.497803H290.079V1.4978ZM294.066 1.4978H296.06V0.497803H294.066V1.4978ZM298.054 1.4978H300.047V0.497803H298.054V1.4978ZM302.041 1.4978H304.035V0.497803H302.041V1.4978ZM306.029 1.4978H308.022V0.497803H306.029V1.4978ZM310.016 1.4978H312.01V0.497803H310.016V1.4978ZM314.003 1.4978H315V0.497803H314.003V1.4978ZM314.5 0.997803V1.94789H315.5V0.997803H314.5ZM314.5 3.84806V5.74823H315.5V3.84806H314.5ZM314.5 7.6484V9.54857H315.5V7.6484H314.5ZM314.5 11.4487V13.3489H315.5V11.4487H314.5ZM314.5 15.2491V17.1493H315.5V15.2491H314.5ZM314.5 19.0494V19.9995H315.5V19.0494H314.5Z" fill="#FE2C55"/>
</svg>
