<svg width="158" height="21" viewBox="0 0 158 21" fill="none" xmlns="http://www.w3.org/2000/svg">
<path d="M154 0.998962H154.5V0.498962H154V0.998962ZM153.646 20.3525C153.842 20.5478 154.158 20.5478 154.354 20.3525L157.536 17.1705C157.731 16.9753 157.731 16.6587 157.536 16.4634C157.34 16.2682 157.024 16.2682 156.828 16.4634L154 19.2919L151.172 16.4634C150.976 16.2682 150.66 16.2682 150.464 16.4634C150.269 16.6587 150.269 16.9753 150.464 17.1705L153.646 20.3525ZM0 1.49896H0.987179V0.498962H0V1.49896ZM2.96154 1.49896H4.9359V0.498962H2.96154V1.49896ZM6.91026 1.49896H8.88461V0.498962H6.91026V1.49896ZM10.859 1.49896H12.8333V0.498962H10.859V1.49896ZM14.8077 1.49896H16.782V0.498962H14.8077V1.49896ZM18.7564 1.49896H20.7308V0.498962H18.7564V1.49896ZM22.7051 1.49896H24.6795V0.498962H22.7051V1.49896ZM26.6538 1.49896H28.6282V0.498962H26.6538V1.49896ZM30.6026 1.49896H32.5769V0.498962H30.6026V1.49896ZM34.5513 1.49896H36.5256V0.498962H34.5513V1.49896ZM38.5 1.49896H40.4744V0.498962H38.5V1.49896ZM42.4487 1.49896H44.4231V0.498962H42.4487V1.49896ZM46.3974 1.49896H48.3718V0.498962H46.3974V1.49896ZM50.3461 1.49896H52.3205V0.498962H50.3461V1.49896ZM54.2949 1.49896H56.2692V0.498962H54.2949V1.49896ZM58.2436 1.49896H60.2179V0.498962H58.2436V1.49896ZM62.1923 1.49896H64.1666V0.498962H62.1923V1.49896ZM66.141 1.49896H68.1154V0.498962H66.141V1.49896ZM70.0897 1.49896H72.0641V0.498962H70.0897V1.49896ZM74.0384 1.49896H76.0128V0.498962H74.0384V1.49896ZM77.9872 1.49896H79.9615V0.498962H77.9872V1.49896ZM81.9359 1.49896H83.9102V0.498962H81.9359V1.49896ZM85.8846 1.49896H87.8589V0.498962H85.8846V1.49896ZM89.8333 1.49896H91.8077V0.498962H89.8333V1.49896ZM93.782 1.49896H95.7564V0.498962H93.782V1.49896ZM97.7307 1.49896H99.7051V0.498962H97.7307V1.49896ZM101.679 1.49896H103.654V0.498962H101.679V1.49896ZM105.628 1.49896H107.603V0.498962H105.628V1.49896ZM109.577 1.49896H111.551V0.498962H109.577V1.49896ZM113.526 1.49896H115.5V0.498962H113.526V1.49896ZM117.474 1.49896H119.449V0.498962H117.474V1.49896ZM121.423 1.49896H123.397V0.498962H121.423V1.49896ZM125.372 1.49896H127.346V0.498962H125.372V1.49896ZM129.32 1.49896H131.295V0.498962H129.32V1.49896ZM133.269 1.49896H135.244V0.498962H133.269V1.49896ZM137.218 1.49896H139.192V0.498962H137.218V1.49896ZM141.167 1.49896H143.141V0.498962H141.167V1.49896ZM145.115 1.49896H147.09V0.498962H145.115V1.49896ZM149.064 1.49896H151.038V0.498962H149.064V1.49896ZM153.013 1.49896H154V0.498962H153.013V1.49896ZM153.5 0.998962V1.94896H154.5V0.998962H153.5ZM153.5 3.84896V5.74896H154.5V3.84896H153.5ZM153.5 7.64896V9.54896H154.5V7.64896H153.5ZM153.5 11.449V13.349H154.5V11.449H153.5ZM153.5 15.249V17.149H154.5V15.249H153.5ZM153.5 19.049V19.999H154.5V19.049H153.5Z" fill="#FE2C55"/>
</svg>
