<svg width="39" height="76" viewBox="0 0 39 76" fill="none" xmlns="http://www.w3.org/2000/svg">
<path d="M17.3647 76.0002L18.4328 75.8988C18.4328 75.8819 18.4376 75.865 18.4401 75.8481C18.2124 75.824 17.9872 75.7805 17.7595 75.7781C15.8826 75.7709 14.1243 75.2327 12.412 74.5329C8.68961 73.01 5.71313 70.5557 3.48259 67.2157C1.8115 64.7106 0.748299 61.957 0.423768 58.9645C0.259081 57.4441 0.251816 55.9044 0.246972 54.3719C0.227597 47.909 0.239706 41.4461 0.232441 34.9832C0.227597 31.0447 1.15275 27.3668 3.29611 24.0364C6.07883 19.7141 9.96351 16.8736 14.9429 15.5704C17.0596 15.0178 19.2175 14.8175 21.4068 15.0588C27.7061 15.7539 32.5571 18.7971 36.018 24.0702C37.4638 26.2735 38.3938 28.6989 38.7692 31.3078C38.9315 32.442 38.9848 33.6004 38.9896 34.7492C39.0066 41.6851 38.9993 48.6185 38.992 55.5545C38.992 56.5946 39.0066 57.642 38.9097 58.6749C38.7038 60.8662 38.079 62.9489 37.1078 64.9254C35.2963 68.6106 32.6225 71.4945 29.0406 73.5024C26.8657 74.7235 24.5311 75.5151 22.0365 75.783C21.603 75.8288 21.1622 75.8264 20.7215 75.8867C20.8474 75.9229 20.9733 75.9615 21.0993 75.9977H17.3696L17.3647 76.0002ZM3.29853 45.4354H3.30095C3.30095 48.9733 3.28157 52.5112 3.31306 56.0492C3.32275 57.1472 3.40267 58.2526 3.5722 59.3361C3.97181 61.9256 5.00837 64.2738 6.60196 66.3444C9.23695 69.7714 12.6712 71.9313 16.9676 72.6529C19.0068 72.9956 21.0508 72.9811 23.061 72.5298C26.8996 71.6658 30.0771 69.7038 32.5039 66.5882C34.9136 63.4943 36.018 59.9757 36.001 56.0564C35.9671 48.8623 35.9865 41.6658 35.9938 34.4692C35.9938 33.1901 35.8533 31.928 35.5578 30.6899C34.7271 27.2147 32.9761 24.285 30.2225 21.9851C26.2288 18.6474 21.6442 17.4094 16.534 18.3627C12.9933 19.0239 10.0023 20.7446 7.57797 23.4379C4.74438 26.5849 3.33486 30.2748 3.30822 34.4909C3.28642 38.1399 3.30337 41.7864 3.30337 45.4354H3.29853Z" fill="#FE2C55"/>
<path d="M38.9373 57.236C38.9228 57.1298 38.8914 57.0236 38.8914 56.9199C38.8889 49.5158 38.8865 42.1117 38.8889 34.7076C38.8889 34.5001 38.9204 34.2925 38.9373 34.085V57.2384V57.236Z" fill="#FE2C55"/>
<path d="M11.2023 9.07366C11.1658 8.65912 11.4499 8.35455 11.7169 8.04681C13.7013 5.75622 15.6878 3.46879 17.6744 1.18031C17.8834 0.939199 18.0828 0.689624 18.3047 0.461199C18.9169 -0.170142 19.6759 -0.153221 20.2527 0.509845C22.5094 3.10289 24.7618 5.69911 27.0121 8.2985C27.501 8.86322 27.4688 9.61194 26.9553 10.0466C26.4096 10.5077 25.7267 10.4506 25.2057 9.85517C23.3606 7.74859 21.5274 5.63249 19.692 3.5185C19.2503 3.00983 19.2578 3.01089 18.7968 3.54388C17.0118 5.60605 15.2225 7.6661 13.4354 9.72827C13.1438 10.0646 12.8125 10.3046 12.3355 10.2803C11.6826 10.2486 11.2023 9.75788 11.2023 9.07366Z" fill="#FE2C55"/>
<path d="M16.1813 35.3379C16.1813 34.5173 16.1378 33.692 16.191 32.8739C16.2976 31.2087 17.6514 29.8741 19.3225 29.8355C21.0687 29.7944 22.3668 31.0204 22.6259 32.5046C22.7059 32.9656 22.7373 33.441 22.7373 33.9092C22.7373 35.2003 22.7495 36.4938 22.6889 37.785C22.6066 39.5033 21.1316 40.8571 19.4363 40.8451C17.6974 40.833 16.2782 39.4912 16.1959 37.7415C16.1595 36.9427 16.1886 36.1391 16.1886 35.3379C16.1886 35.3379 16.1862 35.3379 16.1838 35.3379H16.1813Z" fill="#FE2C55"/>
</svg>
