<svg width="19" height="19" viewBox="0 0 19 19" fill="none" xmlns="http://www.w3.org/2000/svg">
<circle cx="9.49927" cy="9.5" r="9.5" fill="#FE2C55"/>
<path d="M7.72812 10.0751C7.99268 9.77736 8.24549 9.48507 8.51005 9.19819C9.70941 7.89372 11.0175 6.69209 12.5167 5.6799C12.6725 5.57435 12.8342 5.47422 12.9988 5.37679C13.0517 5.34702 13.1193 5.32266 13.1811 5.32266C13.5191 5.31725 13.8572 5.31995 14.1923 5.31995C14.2981 5.31995 14.3834 5.35243 14.4216 5.44715C14.4598 5.53917 14.4304 5.61765 14.351 5.68531C12.9782 6.83823 11.8465 8.18059 10.7706 9.56626C9.77996 10.841 8.86281 12.1617 8.0015 13.5176C7.97211 13.5663 7.93389 13.6177 7.88392 13.6475C7.77809 13.7151 7.65757 13.6772 7.5782 13.5609C7.44592 13.366 7.32245 13.1657 7.18135 12.9763C6.35533 11.8802 5.52342 10.7841 4.69445 9.69075C4.66212 9.65016 4.62684 9.60956 4.59744 9.56626C4.53865 9.47965 4.54159 9.38493 4.61802 9.31457C4.83849 9.10888 5.06484 8.9032 5.29119 8.70022C5.37938 8.62173 5.47345 8.62715 5.59103 8.70022C5.95554 8.93297 6.32005 9.16842 6.68162 9.40117C7.02849 9.6258 7.37537 9.84772 7.72812 10.0751Z" fill="white"/>
</svg>
