<svg width="61" height="61" viewBox="0 0 61 61" fill="none" xmlns="http://www.w3.org/2000/svg">
<path d="M41.3174 0H18.8164C8.46135 0 0.0668945 8.40381 0.0668945 18.7704V41.2965C0.0668945 51.6631 8.46135 60.0669 18.8164 60.0669H41.3174C51.6724 60.0669 60.0669 51.6631 60.0669 41.2965V18.7704C60.0669 8.40381 51.6724 0 41.3174 0Z" fill="white"/>
<path d="M41.3174 0H18.8164C8.46135 0 0.0668945 8.40381 0.0668945 18.7704V41.2965C0.0668945 51.6631 8.46135 60.0669 18.8164 60.0669H41.3174C51.6724 60.0669 60.0669 51.6631 60.0669 41.2965V18.7704C60.0669 8.40381 51.6724 0 41.3174 0Z" fill="url(#paint0_radial_346_11329)"/>
<path style="mix-blend-mode:color" d="M41.3174 0H18.8164C8.46135 0 0.0668945 8.40381 0.0668945 18.7704V41.2965C0.0668945 51.6631 8.46135 60.0669 18.8164 60.0669H41.3174C51.6724 60.0669 60.0669 51.6631 60.0669 41.2965V18.7704C60.0669 8.40381 51.6724 0 41.3174 0Z" fill="url(#paint1_linear_346_11329)"/>
<path style="mix-blend-mode:soft-light" opacity="0.6" d="M41.3174 0H18.8164C8.46135 0 0.0668945 8.40381 0.0668945 18.7704V41.2965C0.0668945 51.6631 8.46135 60.0669 18.8164 60.0669H41.3174C51.6724 60.0669 60.0669 51.6631 60.0669 41.2965V18.7704C60.0669 8.40381 51.6724 0 41.3174 0Z" fill="url(#paint2_linear_346_11329)"/>
<path d="M30.0669 20.7805C24.9623 20.7805 20.8241 24.9233 20.8241 30.0345C20.8241 35.1458 24.9623 39.2876 30.0669 39.2876C35.1715 39.2876 39.3097 35.1448 39.3097 30.0345C39.3097 24.9242 35.1715 20.7805 30.0669 20.7805ZM30.0669 36.0412C26.753 36.0412 24.0669 33.3521 24.0669 30.0345C24.0669 26.717 26.753 24.0278 30.0669 24.0278C33.3807 24.0278 36.0669 26.717 36.0669 30.0345C36.0669 33.3521 33.3807 36.0412 30.0669 36.0412ZM41.8352 20.4155C41.8352 21.6095 40.8678 22.5779 39.6752 22.5779C38.4826 22.5779 37.5152 21.6095 37.5152 20.4155C37.5152 19.2216 38.4826 18.2531 39.6752 18.2531C40.8678 18.2531 41.8352 19.2206 41.8352 20.4155ZM47.9589 22.6056C47.8721 20.6881 47.5675 19.3777 47.1226 18.2318C46.662 17.0471 46.0472 16.0417 45.0466 15.04C44.046 14.0382 43.0417 13.4219 41.8583 12.9617C40.7127 12.5162 39.4047 12.2113 37.4884 12.1244C35.5684 12.0366 34.9555 12.0154 30.0669 12.0154C25.1783 12.0154 24.5663 12.0366 22.6454 12.1244C20.729 12.2113 19.421 12.5162 18.2764 12.9617C17.093 13.4219 16.0887 14.0382 15.0881 15.04C14.0866 16.0417 13.4718 17.0462 13.0121 18.2318C12.5663 19.3777 12.2626 20.6881 12.1758 22.6056C12.0881 24.5278 12.0669 25.1414 12.0669 30.0355C12.0669 34.9295 12.0881 35.5431 12.1758 37.4653C12.2626 39.3837 12.5672 40.6932 13.0121 41.8391C13.4718 43.0247 14.0866 44.0292 15.0881 45.0309C16.0887 46.0326 17.0921 46.649 18.2764 47.1092C19.422 47.5547 20.73 47.8596 22.6454 47.9465C24.5654 48.0343 25.1783 48.0555 30.0669 48.0555C34.9555 48.0555 35.5684 48.0343 37.4884 47.9465C39.4038 47.8596 40.7127 47.5547 41.8583 47.1092C43.0407 46.6481 44.046 46.0326 45.0466 45.0309C46.0472 44.0292 46.662 43.0247 47.1226 41.8391C47.5675 40.6932 47.8721 39.3837 47.9589 37.4653C48.0466 35.5431 48.0669 34.9295 48.0669 30.0355C48.0669 25.1414 48.0466 24.5278 47.9589 22.6056ZM44.7189 37.3165C44.6386 39.0732 44.3451 40.0278 44.0986 40.6627C43.7718 41.5036 43.3823 42.1043 42.7527 42.7345C42.1223 43.3657 41.5232 43.7557 40.6832 44.0828C40.049 44.3295 39.0955 44.6225 37.3407 44.7029C35.4429 44.7897 34.8734 44.8082 30.0669 44.8082C25.2604 44.8082 24.6918 44.7897 22.794 44.7029C21.0392 44.6234 20.0857 44.3304 19.4515 44.0828C18.6106 43.7557 18.0115 43.3648 17.382 42.7345C16.7515 42.1043 16.362 41.5045 16.0352 40.6627C15.7887 40.0278 15.4961 39.0732 15.4158 37.3165C15.329 35.4165 15.3106 34.8463 15.3106 30.0345C15.3106 25.2227 15.329 24.6535 15.4158 22.7526C15.4961 20.9958 15.7887 20.0422 16.0352 19.4064C16.362 18.5654 16.7524 17.9648 17.382 17.3345C18.0124 16.7043 18.6106 16.3134 19.4515 15.9872C20.0857 15.7405 21.0383 15.4466 22.794 15.3662C24.6918 15.2793 25.2614 15.2608 30.0669 15.2608C34.8724 15.2608 35.442 15.2793 37.3407 15.3662C39.0955 15.4466 40.0481 15.7405 40.6832 15.9872C41.5232 16.3134 42.1232 16.7043 42.7527 17.3345C43.3832 17.9648 43.7718 18.5654 44.0986 19.4064C44.3451 20.0412 44.6386 20.9958 44.7189 22.7526C44.8057 24.6535 44.8232 25.2227 44.8232 30.0345C44.8232 34.8463 44.8057 35.4156 44.7189 37.3165Z" fill="white"/>
<defs>
<radialGradient id="paint0_radial_346_11329" cx="0" cy="0" r="1" gradientUnits="userSpaceOnUse" gradientTransform="translate(54.4841 5.59177) scale(69.1191 69.1961)">
<stop stop-color="#D7D7D7"/>
<stop offset="1" stop-color="#393939"/>
</radialGradient>
<linearGradient id="paint1_linear_346_11329" x1="5.55828" y1="54.5694" x2="54.6292" y2="5.55311" gradientUnits="userSpaceOnUse">
<stop stop-color="#B314A3"/>
<stop offset="1" stop-color="#FC971E"/>
</linearGradient>
<linearGradient id="paint2_linear_346_11329" x1="5.55828" y1="54.5694" x2="54.6292" y2="5.55311" gradientUnits="userSpaceOnUse">
<stop stop-color="#B314A3"/>
<stop offset="1" stop-color="#FC971E"/>
</linearGradient>
</defs>
</svg>
