<svg width="21" height="22" viewBox="0 0 21 22" fill="none" xmlns="http://www.w3.org/2000/svg">
<path d="M7.99516 0C8.52268 0.0972281 9.06572 0.162047 9.58548 0.299787C10.6405 0.567164 11.5792 1.10192 12.4015 1.82303C13.6272 2.89254 14.4651 4.23753 14.8762 5.858C15.3184 7.5919 15.2098 9.29339 14.5426 10.9382C14.2944 11.5458 13.9531 12.113 13.6428 12.7207C13.7979 12.8908 13.9996 13.0934 14.2789 13.1582C14.403 13.1825 14.5582 13.1744 14.6668 13.1096C14.8452 13.0043 15.0159 12.9962 15.171 13.0934C15.3727 13.2149 15.5822 13.3527 15.7451 13.5309C17.3897 15.2891 19.0188 17.0554 20.6557 18.8217C21.1212 19.3241 21.1134 19.8832 20.6402 20.3693C20.2135 20.8068 19.7868 21.2362 19.3524 21.6657C18.9025 22.1194 18.3517 22.1113 17.9172 21.6414C16.2571 19.8507 14.5969 18.0682 12.9446 16.2695C12.7894 16.1075 12.6808 15.8887 12.5877 15.678C12.5101 15.516 12.5334 15.3377 12.6343 15.1676C12.6963 15.0623 12.7273 14.8921 12.6886 14.7868C12.5955 14.5356 12.4558 14.3087 12.3627 14.1224C11.7576 14.4789 11.2146 14.8435 10.6328 15.1271C9.4536 15.7023 8.20461 15.8968 6.90908 15.7834C5.38082 15.6456 4.02322 15.0704 2.8363 14.0819C1.77349 13.1906 0.989968 12.0725 0.501234 10.7437C-0.0107736 9.35011 -0.127139 7.90789 0.136622 6.44136C0.384868 5.07207 0.943421 3.84861 1.82004 2.79531C2.76648 1.63667 3.91461 0.810235 5.30324 0.38081C5.83076 0.218763 6.38932 0.145842 6.93235 0.0405117C6.99442 0.024307 7.06423 0.00810235 7.1263 0C7.41333 0 7.70036 0 7.99516 0ZM7.57624 2.45501C4.7059 2.44691 2.36308 4.90192 2.35532 7.89979C2.35532 10.8977 4.69038 13.3446 7.56848 13.3527C10.4388 13.3608 12.7816 10.9139 12.7894 7.90789C12.7972 4.91812 10.4543 2.46311 7.57624 2.45501Z" fill="#A6A6A6"/>
</svg>
