<svg width="51" height="47" viewBox="0 0 51 47" fill="none" xmlns="http://www.w3.org/2000/svg">
<path d="M41.695 35.4772C41.695 35.9775 41.697 36.458 41.695 36.9385C41.691 37.4782 41.5886 37.9942 41.3405 38.4767C40.7575 39.6111 39.8102 40.1921 38.5537 40.198C34.3135 40.2157 30.0733 40.2058 25.8351 40.2039C23.584 40.2039 21.333 40.1862 19.0839 40.196C18.8515 40.196 18.5974 40.2748 18.3906 40.3851C16.0115 41.675 13.6423 42.9788 11.2672 44.2767C10.0776 44.9286 8.88611 45.5785 7.69263 46.2225C6.98166 46.6065 6.29826 46.3466 6.12102 45.6356C6.09541 45.5351 6.09344 45.4249 6.09344 45.3205C6.09344 43.7252 6.09344 42.128 6.09344 40.5328C6.09344 40.4363 6.09344 40.3378 6.09344 40.2255C6.02648 40.2196 5.97331 40.2098 5.92013 40.2098C4.9945 40.2098 4.07083 40.2137 3.14519 40.2058C1.53813 40.1901 0.234363 39.0124 0.049236 37.4151C0.0216638 37.1729 0.00393888 36.9267 0.00393888 36.6825C0 29.5669 0 22.4533 0 15.3417C0 13.9138 0.734601 12.7617 2.00686 12.2536C2.33378 12.1236 2.7001 12.0567 3.0546 12.033C3.59226 11.9976 4.13385 12.0232 4.71484 12.0232C4.71484 11.9208 4.71287 11.8282 4.71484 11.7337C4.73453 11.1133 4.68726 10.4811 4.79164 9.87452C5.05752 8.33639 6.38886 7.28865 8.02743 7.27683C9.97521 7.26305 11.923 7.26895 13.8708 7.26698C14.05 7.26698 14.2292 7.26698 14.438 7.26698C14.4419 7.17245 14.4498 7.09564 14.4498 7.01884C14.4596 5.95534 14.4419 4.88987 14.4852 3.82834C14.5699 1.75846 16.1691 0.151403 18.235 0.0352058C18.6919 0.00960306 19.1508 0.00566418 19.6097 0.00566418C22.2625 0.00369474 24.9134 0.00566418 27.5662 0.00566418C27.7455 0.00566418 27.9266 0.0135419 28.1039 0.0411141C28.5903 0.115953 28.9389 0.541351 28.9251 1.02189C28.9114 1.50638 28.5155 1.92193 28.0231 1.95935C27.8203 1.9751 27.6135 1.96723 27.4106 1.96723C24.4722 1.96723 21.5338 1.96526 18.5974 1.96723C17.5083 1.96723 16.7205 2.51473 16.4862 3.44037C16.431 3.65897 16.4113 3.89334 16.4113 4.11982C16.4113 7.60573 16.4192 11.0936 16.4212 14.5795C16.4212 15.1152 16.4881 15.6233 16.8426 16.0546C17.2011 16.4938 17.6481 16.7715 18.2232 16.7971C18.5994 16.8129 18.9755 16.7991 19.3517 16.7991C28.1019 16.7991 36.8521 16.7991 45.6024 16.7991C45.9056 16.7991 46.2089 16.8188 46.5103 16.7991C47.5324 16.736 48.3261 15.8931 48.3281 14.873C48.332 11.2137 48.332 7.55649 48.3281 3.89728C48.3281 2.79636 47.4261 1.95541 46.2582 1.95541C44.2198 1.95541 42.1834 1.96329 40.145 1.96526C39.1052 1.96526 38.0653 1.97904 37.0274 1.96329C36.7832 1.95935 36.5173 1.91208 36.2987 1.80376C35.9462 1.63045 35.7808 1.20505 35.8458 0.822981C35.9107 0.433032 36.2003 0.127769 36.5981 0.0430835C36.7497 0.0115725 36.9073 -0.000244141 37.0609 -0.000244141C39.9757 -0.000244141 42.8885 0.00369474 45.8032 -0.000244141C46.6915 -0.000244141 47.5442 0.113983 48.33 0.566954C49.4782 1.22672 50.0533 2.25082 50.2384 3.52308C50.2896 3.87758 50.2896 4.23996 50.2896 4.60036C50.2936 7.93069 50.2916 11.263 50.2896 14.5933C50.2896 15.4461 50.0907 16.2437 49.6259 16.9684C48.9957 17.9532 48.0701 18.4869 46.9475 18.6976C46.4275 18.7961 46.4354 18.7744 46.4354 19.3042C46.4413 22.2997 46.4394 25.2952 46.4413 28.2907C46.4413 29.5669 46.4413 30.8451 46.4492 32.1213C46.463 34.0789 45.1198 35.4516 43.1583 35.4713C42.7486 35.4753 42.339 35.4674 41.9313 35.4674C41.8604 35.4674 41.7895 35.4733 41.697 35.4772H41.695ZM8.055 43.8079C8.16529 43.7587 8.24801 43.7272 8.32285 43.6858C8.82899 43.4022 9.3312 43.1108 9.84128 42.8331C12.4961 41.3855 15.1529 39.9419 17.8077 38.4924C18.1247 38.3191 18.4536 38.2423 18.818 38.2443C23.6884 38.2482 28.5569 38.2482 33.4273 38.2482C35.1368 38.2482 36.8482 38.2541 38.5577 38.2463C39.2273 38.2423 39.7118 37.7834 39.7413 37.1197C39.7649 36.6057 39.7413 36.0897 39.7413 35.5737C39.7413 30.1735 39.7413 24.7714 39.7413 19.3712C39.7413 18.7803 39.7413 18.7803 39.1524 18.7803C32.4583 18.7803 25.7622 18.7803 19.0681 18.7803C18.7491 18.7803 18.428 18.7862 18.111 18.7528C17.2976 18.6681 16.5512 18.3943 15.9209 17.8586C14.8141 16.9153 14.4143 15.6804 14.4537 14.2683C14.4557 14.1837 14.4537 14.097 14.4537 13.9926H14.2292C10.5385 13.9926 6.84774 13.9926 3.15504 13.9926C2.44998 13.9926 1.96944 14.481 1.96747 15.1841C1.96747 22.4514 1.96747 29.7186 1.96747 36.9858C1.96747 37.7578 2.41847 38.2344 3.19246 38.2423C4.44502 38.2541 5.69759 38.2423 6.94818 38.2522C7.65915 38.2581 8.055 38.6677 8.055 39.3728C8.055 40.7474 8.055 42.1221 8.055 43.4968C8.055 43.5913 8.055 43.6878 8.055 43.8139V43.8079ZM41.693 18.7921C41.693 18.8749 41.693 18.9477 41.693 19.0206C41.695 20.3953 41.7009 21.7699 41.7009 23.1446C41.7009 26.5242 41.7009 29.9057 41.695 33.2852C41.695 33.4743 41.756 33.5216 41.9372 33.5137C42.3547 33.4979 42.7723 33.4999 43.1898 33.5038C44.0091 33.5117 44.5054 33.0095 44.4876 32.1863C44.4798 31.8594 44.4758 31.5324 44.4758 31.2035C44.4758 27.1445 44.4719 23.0855 44.4778 19.0245C44.4778 18.8276 44.4325 18.7744 44.2356 18.7764C43.4498 18.7823 42.6639 18.7705 41.8781 18.7685C41.823 18.7685 41.7679 18.7823 41.695 18.7921H41.693ZM14.4517 12.0094C14.4517 11.8991 14.4517 11.8184 14.4517 11.7396C14.4517 11.003 14.438 10.2684 14.4557 9.53184C14.4616 9.27975 14.3907 9.21476 14.1425 9.21673C12.5887 9.22658 11.0348 9.2187 9.48285 9.2187C8.96685 9.2187 8.45283 9.21476 7.93684 9.22461C7.17073 9.23839 6.70791 9.70121 6.68821 10.4713C6.6764 10.9045 6.69609 11.3378 6.68231 11.7711C6.6764 11.968 6.73548 12.0192 6.93045 12.0173C8.1003 12.0074 9.26818 12.0094 10.438 12.0094C11.7615 12.0094 13.0849 12.0094 14.4517 12.0094Z" fill="white"/>
<path d="M41.752 6.4595C41.752 7.10941 41.7481 7.71206 41.7599 8.31668C41.7599 8.35803 41.88 8.4309 41.945 8.43287C42.4354 8.44666 42.9258 8.44075 43.4162 8.44863C43.6289 8.45257 43.8455 8.44666 44.0503 8.48802C44.521 8.58255 44.8421 9.00007 44.8283 9.45698C44.8145 9.91192 44.4895 10.3117 44.0129 10.361C43.5186 10.4122 43.0164 10.3885 42.5181 10.4003C42.2759 10.4063 41.943 10.3314 41.815 10.4594C41.687 10.5855 41.7579 10.9183 41.752 11.1605C41.7441 11.4875 41.7599 11.8164 41.7402 12.1413C41.7264 12.354 41.7816 12.4269 42.0061 12.423C42.6757 12.4092 43.3473 12.417 44.0188 12.419C44.6195 12.419 45.0646 12.8306 45.0745 13.384C45.0823 13.9315 44.6372 14.3747 44.0444 14.3786C42.9652 14.3865 41.884 14.3865 40.8047 14.3786C40.2159 14.3747 39.8121 13.967 39.7885 13.3683C39.7747 13 39.7826 12.6317 39.7845 12.2634C39.7865 10.1286 39.7885 7.99369 39.7924 5.85882C39.7924 5.7761 39.7924 5.69535 39.7983 5.61264C39.8476 4.8544 40.1725 4.50581 40.9347 4.48809C41.9568 4.46445 42.979 4.47627 44.0011 4.494C44.1981 4.49794 44.4088 4.55505 44.5841 4.64761C44.9484 4.83865 45.1335 5.26405 45.0587 5.64218C44.972 6.09121 44.6944 6.3945 44.2394 6.42602C43.6289 6.46737 43.0144 6.45162 42.4 6.4595C42.1971 6.46147 41.9943 6.4595 41.7461 6.4595H41.752Z" fill="white"/>
<path d="M34.1817 10.7274C34.2624 10.4832 34.3195 10.3138 34.3766 10.1464C34.9182 8.51963 35.4618 6.89288 35.9994 5.26612C36.1373 4.8486 36.3697 4.52955 36.8286 4.46259C37.5258 4.36018 38.0792 4.98646 37.8783 5.67379C37.6518 6.44975 37.38 7.21192 37.126 7.98001C36.5371 9.75447 35.9502 11.5289 35.3574 13.3034C35.3003 13.4728 35.2432 13.6481 35.1506 13.7997C34.6839 14.5816 33.6164 14.5599 33.1969 13.7505C33.0335 13.4334 32.9311 13.0848 32.8149 12.746C32.033 10.5009 31.2551 8.25573 30.4771 6.01057C30.4378 5.89437 30.3984 5.77817 30.3708 5.66001C30.2388 5.13023 30.4988 4.64181 30.9912 4.48228C31.4737 4.32473 31.9759 4.54924 32.1689 5.05342C32.4485 5.78605 32.6947 6.5305 32.9527 7.26904C33.3151 8.31087 33.6735 9.3527 34.0359 10.3926C34.0674 10.4832 34.1108 10.5698 34.1797 10.7313L34.1817 10.7274Z" fill="white"/>
<path d="M21.6088 12.4013C22.1307 12.4013 22.6191 12.3994 23.1075 12.4013C23.2789 12.4013 23.4542 12.3974 23.6196 12.4328C24.0962 12.5353 24.433 12.9764 24.3975 13.4274C24.3562 13.9375 23.9524 14.3531 23.403 14.3668C22.4872 14.3924 21.5714 14.3964 20.6556 14.3668C20.0175 14.3452 19.6453 13.908 19.6453 13.2718C19.6453 10.7037 19.6453 8.13553 19.6453 5.56738C19.6453 5.15183 19.7556 4.78552 20.1337 4.561C20.4547 4.36997 20.7915 4.36997 21.1125 4.561C21.4591 4.76582 21.6088 5.08684 21.6088 5.48467C21.6088 7.68453 21.6088 9.88439 21.6088 12.0843C21.6088 12.1808 21.6088 12.2792 21.6088 12.3994V12.4013Z" fill="white"/>
<path d="M27.9719 9.36455C27.9719 10.6073 27.9798 11.85 27.966 13.0927C27.9621 13.3468 27.9168 13.6185 27.8183 13.8509C27.6647 14.2113 27.2176 14.4221 26.869 14.3571C26.3944 14.2685 26.0832 13.9671 26.0242 13.5279C26.0064 13.3901 25.9966 13.2503 25.9966 13.1124C25.9966 10.6191 25.9966 8.12577 25.9966 5.63246C25.9966 5.29175 26.0242 4.95695 26.294 4.70486C26.5795 4.43898 26.9183 4.34445 27.2905 4.47837C27.6805 4.6182 27.905 4.90968 27.9384 5.32129C27.966 5.65413 27.968 5.9909 27.97 6.32571C27.9739 7.33997 27.97 8.35423 27.97 9.36652L27.9719 9.36455Z" fill="white"/>
<path d="M33.3545 0.966819C33.3585 1.52023 32.9567 1.94366 32.4171 1.95351C31.8735 1.96139 31.4264 1.53205 31.4186 0.992422C31.4107 0.454765 31.8381 0.0333052 32.4033 0.0195191C32.9075 0.00770251 33.3506 0.448857 33.3565 0.968789L33.3545 0.966819Z" fill="white"/>
<path d="M6.47543 26.1046C6.46165 24.1627 8.0431 22.5438 9.96528 22.534C11.9623 22.5222 13.5831 24.1036 13.5969 26.0751C13.6107 28.0228 11.984 29.7047 10.0519 29.6949C8.24399 29.687 6.49316 28.2198 6.47543 26.1046ZM8.43108 26.0672C8.42715 27.1898 9.33309 27.7451 10.0913 27.7235C11.011 27.6959 11.6925 26.9554 11.6629 26.0554C11.6334 25.1474 10.883 24.4562 9.96331 24.4916C9.07312 24.5251 8.39957 25.2183 8.43108 26.0691V26.0672Z" fill="white"/>
<path d="M35.2391 26.0535C35.2922 27.9383 33.8093 29.5513 31.8398 29.6872C30.1382 29.8053 28.1865 28.4838 28.1097 26.1855C28.0427 24.1708 29.638 22.6602 31.4656 22.542C33.4941 22.4101 35.0992 23.9049 35.2391 26.0535ZM30.0535 26.089C30.0535 27.0225 30.7389 27.7157 31.6724 27.7256C32.5646 27.7354 33.2933 27.0245 33.3011 26.1382C33.307 25.2106 32.6059 24.4859 31.696 24.48C30.7566 24.474 30.0555 25.1614 30.0555 26.087L30.0535 26.089Z" fill="white"/>
<path d="M24.4151 26.1401C24.3973 28.0722 22.741 29.7422 20.8287 29.693C18.8041 29.6398 17.2266 28.0091 17.2936 25.9727C17.3526 24.1766 18.7864 22.5164 20.9213 22.5361C22.8493 22.5538 24.4328 24.1924 24.4151 26.1382V26.1401ZM19.2453 26.0889C19.1763 26.8629 19.781 27.698 20.8543 27.7236C21.7465 27.7452 22.483 27.0067 22.4889 26.1126C22.4948 25.1987 21.7858 24.4957 20.8523 24.4897C19.9208 24.4838 19.2492 25.1534 19.2453 26.0889Z" fill="white"/>
</svg>
