<svg width="48" height="48" viewBox="0 0 48 48" fill="none" xmlns="http://www.w3.org/2000/svg">
<path d="M8.43806 30.7916C8.43806 35.9484 8.43806 41.1033 8.43806 46.2601C8.43806 46.9056 8.14027 47.2034 7.49289 47.2034C5.31032 47.2034 3.12589 47.2034 0.943316 47.2034C0.303341 47.2034 0 46.8982 0 46.2546C0 35.9428 0 25.6292 0 15.3175C0 14.6775 0.305191 14.3723 0.948865 14.3723C3.13144 14.3723 5.31587 14.3723 7.49844 14.3723C8.14027 14.3723 8.43436 14.6683 8.43436 15.3008C8.43436 20.465 8.43436 25.6292 8.43436 30.7934H8.43806V30.7916ZM6.97684 45.72V15.8576H1.48896V45.72H6.97684Z" fill="white"/>
<path d="M34.3219 35.3528C34.3219 38.9726 34.3219 42.5923 34.3219 46.2102C34.3219 46.9057 34.0222 47.2035 33.3212 47.2035C31.1608 47.2035 29.0004 47.2035 26.8401 47.2035C26.176 47.2035 25.9041 46.9556 25.8431 46.2953C25.832 46.1658 25.8339 46.0345 25.8339 45.9032C25.8339 38.8098 25.8339 31.7183 25.8339 24.6249C25.8339 24.5324 25.8339 24.4399 25.8394 24.3493C25.8819 23.7741 26.1705 23.5059 26.7457 23.5059C28.945 23.5059 31.1423 23.5059 33.3415 23.5096C34.0241 23.5096 34.3219 23.811 34.3219 24.4954C34.3219 28.1152 34.3219 31.7349 34.3219 35.3528ZM27.3284 45.7108H32.8458V45.3742C32.8458 38.6581 32.8458 31.9421 32.8495 25.226C32.8495 25.0355 32.7978 24.9782 32.6054 24.9782C31.0221 24.9856 29.4388 24.9819 27.8555 24.9819C27.5102 24.9819 27.337 25.1576 27.3358 25.509C27.3302 32.164 27.3228 38.8172 27.3173 45.4722C27.3173 45.548 27.3247 45.622 27.3284 45.7108Z" fill="white"/>
<path d="M41.6483 23.6316C41.5539 23.3209 41.48 23.0749 41.4041 22.8289C41.2931 22.4626 41.1711 22.0982 41.073 21.7265C40.9787 21.3713 41.086 21.0828 41.3449 20.9108C41.6076 20.7369 41.922 20.7092 42.1384 20.9108C42.2919 21.0532 42.4196 21.2585 42.4843 21.4601C42.8228 22.5107 43.1372 23.5706 43.4591 24.6267C43.5423 24.8986 43.6274 25.1686 43.6995 25.4424C43.8327 25.9455 43.4998 26.3913 42.9745 26.3598C42.1625 26.3136 41.3523 26.2285 40.5403 26.1582C40.1038 26.1212 39.6673 26.0879 39.2326 26.0343C39.0551 26.0121 38.8646 25.9695 38.7129 25.8789C38.4632 25.7309 38.3448 25.4831 38.3966 25.1908C38.4502 24.8875 38.6278 24.6452 38.9441 24.6119C39.2678 24.5786 39.6007 24.6156 39.9281 24.6323C40.1223 24.6415 40.3147 24.6729 40.5292 24.6452C40.4164 24.5583 40.3036 24.4732 40.1908 24.3862C37.0575 21.9447 33.9242 19.5032 30.7909 17.0598C30.543 16.8656 30.3026 16.6622 30.0492 16.4753C29.9937 16.4328 29.892 16.4069 29.8291 16.4272C27.2451 17.2596 24.663 18.0975 22.0791 18.9372C20.6271 19.4089 19.1696 19.862 17.7269 20.3614C17.1738 20.5538 16.7799 20.4613 16.3692 20.0414C14.3938 18.0179 12.3962 16.0148 10.406 14.0042C8.29186 11.8697 6.17587 9.73525 4.06173 7.59892C3.92671 7.46204 3.78798 7.32702 3.66961 7.1772C3.41806 6.85906 3.4532 6.46694 3.73989 6.20429C4.01549 5.95089 4.41871 5.93979 4.69616 6.21354C5.47486 6.97929 6.24061 7.75614 7.01006 8.52928C10.1914 11.7292 13.371 14.9272 16.5505 18.1271C16.7503 18.3287 16.9556 18.5266 17.1405 18.743C17.2848 18.9132 17.4217 18.9446 17.6381 18.8725C19.1936 18.349 20.751 17.8311 22.314 17.3262C24.5169 16.6122 26.7254 15.9112 28.9301 15.2028C29.1854 15.1214 29.4406 15.0363 29.6922 14.942C30.0584 14.8051 30.3692 14.8735 30.6762 15.1196C31.5825 15.8446 32.5 16.5549 33.4155 17.267C36.0901 19.3478 38.7647 21.4268 41.4411 23.5058C41.4855 23.541 41.5373 23.565 41.6464 23.6297L41.6483 23.6316Z" fill="white"/>
<path d="M12.9177 36.7806C12.9177 33.6307 12.9177 30.4807 12.9177 27.3308C12.9177 26.6797 13.1896 26.4097 13.8444 26.4097C16.0658 26.4097 18.2872 26.4097 20.5086 26.4097C21.0802 26.4097 21.3354 26.6464 21.3817 27.2198C21.3909 27.3345 21.3946 27.4492 21.3946 27.5657C21.3946 33.7731 21.3928 39.9823 21.3891 46.1897C21.3891 46.9259 21.1005 47.2052 20.3681 47.2052C18.2151 47.2052 16.064 47.2052 13.911 47.2052C13.2118 47.2052 12.9177 46.9092 12.9177 46.2082C12.9177 43.0657 12.9177 39.9231 12.9177 36.7806ZM19.926 45.7218C19.926 45.6533 19.926 45.6089 19.926 45.5627C19.9168 43.4042 19.9038 41.2456 19.902 39.0853C19.8983 35.3971 19.902 31.7107 19.9057 28.0226C19.9057 27.8764 19.8335 27.8838 19.7336 27.8838C18.0357 27.8746 16.3359 27.8635 14.6379 27.8542C14.5639 27.8542 14.4881 27.869 14.4141 27.8764V45.7218H19.926Z" fill="white"/>
<path d="M20.2035 15.0086C15.879 14.8199 12.8512 11.5239 12.853 7.48424C12.8512 3.22452 16.2823 -0.0604454 20.4236 0.000592766C24.8073 0.0653302 27.8629 3.49456 27.8444 7.50828C27.8259 11.8327 24.3689 15.0067 20.2016 15.0067L20.2035 15.0086ZM26.3905 7.51013C26.4645 4.3195 23.7863 1.40447 20.2442 1.45071C16.8372 1.4951 14.3253 4.40274 14.2939 7.40285C14.2569 10.9079 17.1664 13.6028 20.4717 13.5492C23.716 13.4956 26.4035 10.7895 26.3905 7.51013Z" fill="white"/>
<path d="M47.2399 39.6643C47.2399 41.8542 47.2399 44.0442 47.2399 46.2342C47.2399 46.913 46.9495 47.2052 46.2744 47.2052C44.1066 47.2052 41.9388 47.2052 39.771 47.2052C39.0885 47.2052 38.8074 46.9259 38.8074 46.236C38.8074 41.8635 38.8074 37.4928 38.8074 33.1202C38.8074 32.9908 38.8185 32.8594 38.8407 32.7318C38.8943 32.4266 39.0941 32.225 39.403 32.1695C39.538 32.1455 39.6767 32.1344 39.8154 32.1344C41.9592 32.1325 44.1047 32.1344 46.2485 32.1344C46.3021 32.1344 46.3558 32.1344 46.4094 32.1362C46.9513 32.164 47.2399 32.4618 47.2399 33.0055C47.2417 34.6887 47.2399 36.37 47.2399 38.0532V39.6661V39.6643ZM45.7491 45.7181V33.5752C44.0973 33.5752 42.4604 33.5752 40.8253 33.5752C40.2501 33.5752 40.2482 33.5789 40.2482 34.1449C40.2482 37.7314 40.2501 41.3197 40.2519 44.9061C40.2519 45.1725 40.2519 45.4388 40.2519 45.7181H45.7509H45.7491Z" fill="white"/>
<path d="M21.0952 11.509C21.0785 11.6496 21.0767 11.805 21.0397 11.9511C20.9583 12.2822 20.6494 12.5171 20.335 12.506C19.9854 12.4949 19.6654 12.2415 19.6561 11.8771C19.6469 11.5368 19.4915 11.4277 19.1993 11.3278C18.3429 11.0411 17.7714 10.4455 17.505 9.57986C17.3607 9.1119 17.6086 8.69018 18.0488 8.60695C18.3799 8.54591 18.748 8.71238 18.8201 9.03977C19.0846 10.2235 20.7271 10.3345 21.5224 9.77407C21.8332 9.55582 21.8646 9.11005 21.6038 8.77527C21.4152 8.53296 21.1581 8.39979 20.8695 8.32766C20.3923 8.20928 19.904 8.13344 19.436 7.99287C18.6555 7.75797 18.0507 7.29556 17.7825 6.49096C17.4699 5.55689 17.8528 4.4989 18.7017 3.94956C18.9385 3.79789 19.203 3.68691 19.4656 3.58333C19.5803 3.53709 19.6247 3.489 19.621 3.37062C19.6173 3.28739 19.6303 3.2023 19.6432 3.11907C19.7042 2.714 20.0224 2.4458 20.409 2.47169C20.7807 2.49574 21.0896 2.79538 21.0711 3.1912C21.06 3.4631 21.1618 3.54634 21.3985 3.62957C22.1569 3.89222 22.6859 4.41567 23.0021 5.15367C23.1279 5.44777 23.0724 5.71411 22.8505 5.93607C22.6285 6.15988 22.3418 6.23386 22.0681 6.08959C21.8924 5.99711 21.737 5.81769 21.6408 5.63828C21.2209 4.86883 20.1593 4.63022 19.4564 5.17032C18.9736 5.5421 18.994 6.19872 19.5433 6.44472C19.978 6.64078 20.4626 6.72587 20.9287 6.84609C21.4614 6.98297 21.9793 7.14758 22.414 7.49532C23.6847 8.51447 23.4794 10.4344 22.0181 11.1539C21.7314 11.2945 21.4189 11.3814 21.097 11.5016L21.0952 11.509Z" fill="white"/>
</svg>
