<svg width="49" height="47" viewBox="0 0 49 47" fill="none" xmlns="http://www.w3.org/2000/svg">
<path d="M39.7381 30.2134C41.0086 31.0953 42.2013 31.846 43.3031 32.7077C44.4219 33.5841 44.384 33.6451 43.7449 34.8562C43.6311 35.0707 43.5268 35.2908 43.3922 35.5626C44.8808 36.5351 46.3504 37.4874 47.8086 38.4507C48.8307 39.1256 48.8023 39.562 47.7025 40.1629C46.7391 40.6899 45.7834 41.2316 44.7993 41.7161C44.3441 41.9398 44.1602 42.2042 44.1792 42.7108C44.219 43.8184 44.2057 44.9297 44.1868 46.0391C44.1716 46.958 43.7279 47.2391 42.9238 46.7879C40.4094 45.3734 37.9176 43.9238 35.4165 42.4908C34.8855 42.1857 34.7698 41.7956 35.0656 41.252C35.3577 40.7139 35.5985 40.15 35.9114 39.4973C35.4449 39.2976 35.0012 39.1533 34.6048 38.9296C34.0682 38.6282 33.7098 38.7706 33.2926 39.1755C30.9128 41.4831 28.1234 43.2027 25.0343 44.4545C24.6437 44.6135 24.0862 44.6652 23.7069 44.5173C20.7146 43.3635 17.9783 41.7604 15.697 39.5453C14.8513 38.7244 14.1724 38.6615 13.2603 39.207C13.101 39.3031 12.9304 39.3808 12.6706 39.5176C12.9436 40.1 13.1864 40.6843 13.486 41.2427C13.7742 41.7826 13.6813 42.1802 13.1465 42.4871C10.6453 43.9219 8.15174 45.3716 5.63917 46.7861C4.83325 47.2391 4.38193 46.9617 4.36866 46.0502C4.3497 44.9093 4.399 43.7685 4.34021 42.6313C4.32504 42.3373 4.08801 41.9472 3.83201 41.7919C2.8687 41.2094 1.8504 40.7121 0.858643 40.1721C-0.275333 39.5546 -0.282918 39.1404 0.816925 38.4156C2.25241 37.4689 3.68979 36.5296 5.10252 35.6014C5.08924 35.4794 5.09683 35.4128 5.07407 35.361C4.18472 33.4584 4.16955 33.438 5.89706 32.1863C6.82813 31.5114 7.82178 30.9215 8.70356 30.3465C7.92608 27.9243 7.08982 25.5483 6.41474 23.1316C5.98619 21.597 5.75673 20.0031 5.52729 18.4241C5.48177 18.1079 5.77759 17.507 6.03549 17.433C6.62144 17.2647 6.79779 17.7658 6.87554 18.2706C7.42167 21.8355 8.24276 25.3357 9.69341 28.6657C12.4885 35.0855 16.886 40.0483 23.5211 42.9235C23.9402 43.1047 24.5773 43.1195 24.9926 42.9438C30.5639 40.5771 34.6541 36.6479 37.4948 31.4559C41.2513 24.5887 42.5503 15.7781 42.0345 8.26189C35.589 7.41135 29.6404 5.20918 24.2796 1.47972C18.9283 5.19993 12.9816 7.41135 6.4868 8.26374C6.4868 10.4104 6.4868 12.4702 6.4868 14.5319C6.4868 14.7464 6.5911 15.0089 6.50008 15.168C6.34079 15.4453 6.06772 15.6598 5.84207 15.9002C5.60503 15.6653 5.16699 15.4361 5.1613 15.1957C5.10441 12.7051 5.1139 10.2126 5.1139 7.72013C5.1139 6.91581 5.79466 6.95464 6.32941 6.8437C8.42101 6.40733 10.5448 6.08561 12.6004 5.5272C16.5219 4.46217 20.1154 2.68527 23.3997 0.340726C24.0502 -0.123376 24.5128 -0.106735 25.1595 0.348122C30.2453 3.92411 35.9095 6.09115 42.1388 6.82891C42.9333 6.92321 43.432 7.12475 43.4889 8.09918C43.908 15.4527 42.9371 22.5806 40.0453 29.4201C39.9277 29.6993 39.8272 29.9841 39.7362 30.2152L39.7381 30.2134ZM9.12074 39.8782C10.6131 39.0609 12.0448 38.2751 13.4234 37.5188C12.0789 35.557 10.744 33.6063 9.35208 31.5742C8.37171 32.2343 7.37237 32.8704 6.42802 33.573C6.23839 33.7135 6.09807 34.1887 6.19857 34.3829C7.1486 36.243 8.15553 38.0772 9.12263 39.8782H9.12074ZM39.2147 31.5779C37.8115 33.6192 36.4594 35.5866 35.1301 37.5207C36.5353 38.2898 37.9499 39.0646 39.4328 39.8763C40.4113 38.0606 41.4315 36.2023 42.3986 34.3182C42.4858 34.1481 42.3246 33.7154 42.1426 33.5804C41.1906 32.8815 40.1951 32.2399 39.2147 31.5779ZM10.8501 42.1857C10.3685 42.0803 10.0727 41.962 9.77306 41.9583C8.83819 41.949 8.30913 41.5016 7.92039 40.6788C7.3022 39.3734 6.56265 38.1234 5.84396 36.794C4.58104 37.6187 3.38638 38.4008 2.10071 39.2402C2.85353 39.6489 3.47551 40.0797 4.16576 40.3386C5.43247 40.8174 5.98429 41.6051 5.77001 42.9494C5.66761 43.5965 5.75294 44.2714 5.75294 45.1164C7.52407 44.0976 9.10936 43.186 10.8501 42.1839V42.1857ZM46.4623 39.2439C45.1576 38.3934 43.9649 37.615 42.7114 36.7977C42.1748 37.7832 41.5945 38.6707 41.1944 39.6304C40.5952 41.0615 39.7912 42.1432 38.0257 42.1155C37.9859 42.1155 37.9461 42.1802 37.8456 42.2671C39.4555 43.1916 41.0408 44.1031 42.8025 45.1164C42.8025 43.9793 42.8271 43.0363 42.793 42.097C42.7702 41.472 42.9712 41.0689 43.578 40.7823C44.5129 40.3423 45.4023 39.8153 46.4604 39.2439H46.4623Z" fill="white"/>
<path d="M24.2492 6.67727C20.3562 9.29732 16.1483 11.0003 11.5062 11.6326C11.0018 11.701 10.8255 11.9211 10.8179 12.4148C10.7268 19.2099 11.8248 25.7073 15.8051 31.4873C16.0971 31.9107 16.3228 32.4063 15.7425 32.6356C15.4638 32.7465 14.8228 32.4765 14.6161 32.1918C12.5454 29.348 11.2711 26.1548 10.4443 22.7822C9.54357 19.1045 9.31412 15.3732 9.45823 11.603C9.49237 10.7155 9.90007 10.4289 10.7041 10.3346C15.3689 9.7947 19.5976 8.14354 23.4149 5.49575C24.0236 5.07233 24.4806 5.03719 25.1044 5.47171C28.9463 8.14354 33.2035 9.80395 37.9024 10.3439C38.6647 10.4308 39.1142 10.7081 39.0876 11.5624C39.0421 12.9769 39.1236 14.395 39.0535 15.8077C39.0383 16.1202 38.6173 16.4142 38.3822 16.7156C38.1584 16.4049 37.7659 16.1054 37.7431 15.7818C37.6673 14.6484 37.7583 13.5038 37.6957 12.3667C37.6825 12.1152 37.3373 11.7177 37.0851 11.6678C31.2768 10.5158 29.8413 9.96851 24.2511 6.67542L24.2492 6.67727Z" fill="white"/>
<path d="M22.2885 22.7563C24.5091 20.5818 26.5343 18.5978 28.5576 16.612C29.3142 15.8687 30.2225 15.6024 31.2409 15.9094C32.1549 16.1849 32.8394 16.8394 32.8527 17.7584C32.8641 18.4591 32.6706 19.3633 32.2061 19.8404C29.5551 22.564 26.8111 25.2025 24.0634 27.8336C23.0755 28.7803 21.6627 28.7544 20.6501 27.8096C19.2583 26.5116 17.8986 25.1803 16.5655 23.825C15.6117 22.8561 15.6288 21.4213 16.5257 20.4931C17.4663 19.5223 18.9416 19.4317 20.0073 20.3803C20.7942 21.081 21.4712 21.8983 22.2866 22.7563H22.2885ZM31.5822 18.2705C31.4627 17.9895 31.4115 17.775 31.2921 17.6086C30.8597 17.0058 30.196 17.0095 29.5304 17.653C27.4236 19.6869 25.3207 21.7245 23.2461 23.788C22.626 24.4037 22.1273 24.4518 21.5129 23.8009C20.8094 23.0539 20.0433 22.3661 19.3151 21.6394C18.7899 21.1162 18.1982 20.8518 17.5933 21.4342C16.977 22.0277 17.2861 22.6083 17.8057 23.115C18.9871 24.2687 20.1609 25.4281 21.3555 26.5671C22.1387 27.3141 22.6014 27.327 23.3694 26.5856C25.9237 24.119 28.4647 21.6394 30.9943 19.1488C31.2446 18.9029 31.3926 18.5571 31.5822 18.2669V18.2705Z" fill="white"/>
<path d="M38.881 18.8141C37.455 27.8429 34.0379 35.3388 25.0798 39.2309C24.6323 39.4251 23.9573 39.4362 23.5021 39.255C21.0503 38.2861 18.8866 36.866 17.0207 35.0263C16.6566 34.6676 16.2337 34.2848 16.7874 33.793C17.2634 33.3714 17.6483 33.6968 18.001 34.0408C19.628 35.6198 21.4788 36.8901 23.5856 37.7758C23.98 37.9422 24.583 37.944 24.9699 37.7721C30.2624 35.409 33.6833 31.3541 35.5833 26.0993C36.4044 23.8287 36.7628 21.4028 37.3886 19.0601C37.4777 18.7254 37.8892 18.4721 38.1509 18.1799C38.4202 18.4148 38.6895 18.6477 38.8791 18.8123L38.881 18.8141Z" fill="white"/>
</svg>
