<svg width="39" height="47" viewBox="0 0 39 47" fill="none" xmlns="http://www.w3.org/2000/svg">
<path d="M9.37618 29.5423C8.57408 27.8576 7.00531 28.0251 5.62015 27.7867C4.99522 27.6804 4.35741 27.6353 3.74214 27.4904C3.46833 27.4259 3.08177 27.223 3.03023 27.0104C2.96581 26.743 3.17519 26.4016 3.29438 26.102C3.33626 25.9989 3.45867 25.9248 3.54564 25.8378C5.34312 24.0403 7.12128 22.2203 8.95741 20.4583C9.33108 20.1007 9.89481 19.8237 10.4038 19.7528C12.314 19.4854 14.2371 19.3308 16.1506 19.0957C16.4308 19.0602 16.7368 18.8702 16.9462 18.6672C18.5311 17.1403 20.0161 15.5007 21.6815 14.0704C24.3326 11.7865 27.5539 10.6108 30.9234 9.89565C32.9206 9.47044 34.9661 9.25783 36.9988 9.00335C37.7558 8.90993 38.0876 9.23851 38.0392 9.95363C37.7171 14.6245 36.8345 19.1569 34.4282 23.2479C33.7292 24.4333 32.795 25.4964 31.8801 26.5368C30.9943 27.5451 30.044 28.5147 29.0261 29.3845C28.1724 30.1125 27.8471 30.9693 27.7762 32.042C27.6731 33.5754 27.5153 35.1087 27.2866 36.6292C27.2093 37.1413 26.9419 37.7083 26.5843 38.0787C24.7901 39.9471 22.9475 41.7736 21.0888 43.5807C20.8279 43.8352 20.3543 44.0607 20.0387 44.0027C19.8099 43.9576 19.5812 43.4357 19.5136 43.0975C19.3332 42.2149 19.2237 41.3161 19.1174 40.4206C18.9305 38.8357 18.8146 38.6135 17.5261 37.6278C16.972 38.549 16.4244 39.4736 15.8639 40.3852C15.4032 41.1357 14.9812 41.1905 14.3595 40.572C11.7277 37.9467 9.09915 35.3181 6.4738 32.6863C5.8392 32.0485 5.88752 31.6523 6.65097 31.1852C7.56581 30.6247 8.4871 30.077 9.37618 29.5423ZM21.2241 35.1119C21.5172 34.8381 21.6976 34.6803 21.8651 34.5095C24.8223 31.5524 27.7633 28.5791 30.743 25.6446C32.5953 23.8213 33.858 21.6501 34.6923 19.2149C34.7761 18.97 34.6859 18.5319 34.5087 18.3483C32.5985 16.3866 30.6593 14.4506 28.7007 12.5371C28.5171 12.3567 28.079 12.2569 27.8374 12.3406C25.4053 13.1749 23.2342 14.4377 21.4077 16.2867C17.7805 19.9557 14.1147 23.5894 10.4682 27.2423C10.2846 27.4259 10.1139 27.6192 9.99789 27.7416C13.1258 30.8695 16.1989 33.9426 19.2494 36.9964C19.5522 36.7419 19.9001 36.4488 20.2738 36.1363C20.0419 35.8947 19.8776 35.7175 19.7101 35.5468C18.0672 33.9039 16.4276 32.2579 14.7815 30.6182C14.4175 30.2574 14.1662 29.8483 14.5786 29.4102C15.0296 28.9303 15.4612 29.2137 15.8349 29.5874C16.9591 30.7116 18.0898 31.8294 19.2043 32.9633C19.884 33.6559 20.538 34.3775 21.2273 35.1119H21.2241ZM8.04901 32.0581C10.3812 34.3904 12.6716 36.6839 14.9812 38.9936C15.4644 38.1947 15.9637 37.3636 16.405 36.6259C14.395 34.6094 12.4235 32.6283 10.4263 30.6247C9.67254 31.0789 8.85755 31.5685 8.04579 32.0549L8.04901 32.0581ZM14.8331 20.7353C13.3964 20.8899 12.0917 21.0123 10.7936 21.1863C10.4811 21.2282 10.1235 21.3699 9.90125 21.5857C8.44523 22.9999 7.01819 24.443 5.58472 25.8829C5.4913 25.9763 5.4301 26.102 5.32057 26.2598C6.33528 26.408 7.2759 26.5175 8.20685 26.6915C8.66428 26.7784 8.97352 26.685 9.30531 26.3468C10.9643 24.6524 12.6522 22.9838 14.3273 21.3022C14.4755 21.1541 14.6076 20.9898 14.8298 20.7353H14.8331ZM26.3105 32.1451C24.265 34.1906 22.3612 36.0848 20.4735 37.995C20.3576 38.111 20.2964 38.3526 20.3189 38.5201C20.4574 39.5702 20.6282 40.6171 20.7924 41.7027C20.9213 41.6383 20.9954 41.6189 21.0405 41.5706C22.548 40.0695 24.0556 38.5684 25.5535 37.0511C25.6985 36.9062 25.8209 36.6839 25.8434 36.4842C26.0077 35.1055 26.1462 33.7203 26.3105 32.1419V32.1451ZM36.6187 10.6269C36.5413 10.556 36.464 10.4851 36.3867 10.4143C34.2607 10.7815 32.1378 11.152 30.0537 11.5127C31.9059 13.3521 33.6873 15.1206 35.5363 16.9599C35.8939 14.8693 36.2579 12.7465 36.6219 10.6269H36.6187Z" fill="white"/>
<path d="M1.34228 46.5701C0.669032 46.5475 0.330796 45.9677 0.588499 45.507C0.694802 45.3202 0.852645 45.1559 1.00727 45.0013C3.33626 42.6659 5.66526 40.3369 8.00069 38.0079C8.15532 37.8532 8.31638 37.631 8.50322 37.602C8.77703 37.5569 9.17647 37.5569 9.33753 37.7179C9.4986 37.8822 9.4696 38.272 9.44383 38.5555C9.43095 38.694 9.25378 38.8293 9.13459 38.9485C6.75405 41.3322 4.37352 43.7192 1.98332 46.0965C1.76749 46.3091 1.49368 46.4605 1.3455 46.5668L1.34228 46.5701Z" fill="white"/>
<path d="M2.35056 41.3646C1.74818 41.3904 1.36484 40.846 1.6 40.366C1.70308 40.1534 1.88025 39.9698 2.05098 39.7991C3.33949 38.5009 4.63445 37.2091 5.92941 35.9174C6.0486 35.7982 6.17101 35.6017 6.3063 35.5856C6.63488 35.5534 7.0923 35.489 7.26625 35.6629C7.43054 35.8272 7.43698 36.4231 7.27269 36.5971C5.79412 38.1498 4.26078 39.6541 2.73711 41.1649C2.62437 41.2776 2.44075 41.3195 2.35056 41.3646Z" fill="white"/>
<path d="M10.8225 39.5445C11.4152 39.5219 11.7921 40.076 11.5731 40.5656C11.4958 40.7364 11.354 40.8878 11.2187 41.0231C9.85935 42.3889 8.49674 43.7515 7.13414 45.1109C7.06649 45.1785 6.99884 45.2526 6.92153 45.3106C6.56719 45.5876 6.14198 45.6682 5.9036 45.2719C5.75864 45.0303 5.74254 44.4892 5.91327 44.3152C7.39184 42.7626 8.92195 41.255 10.4488 39.7442C10.5616 39.6315 10.742 39.5864 10.829 39.5413L10.8225 39.5445Z" fill="white"/>
<path d="M24.3101 27.0813C21.8683 27.0685 19.9581 25.1453 19.9613 22.7036C19.9613 20.2361 21.9424 18.2582 24.3745 18.2904C26.7904 18.3226 28.7458 20.2908 28.749 22.6939C28.7522 25.1389 26.7743 27.0942 24.3068 27.0813H24.3101ZM24.3777 25.606C25.9755 25.5931 27.2543 24.3175 27.2704 22.7165C27.2865 21.1123 25.9529 19.7658 24.3423 19.7658C22.722 19.7658 21.4238 21.0768 21.4302 22.7133C21.4367 24.3561 22.722 25.6189 24.3745 25.606H24.3777Z" fill="white"/>
<path d="M12.839 28.634C12.6554 28.3506 12.314 28.0574 12.3333 27.7901C12.3526 27.5388 12.7295 27.1619 12.9937 27.1168C13.4092 27.0459 13.7603 27.3745 13.6766 27.8319C13.625 28.1186 13.3448 28.3634 13.1708 28.6276C13.0613 28.6276 12.9486 28.634 12.839 28.634Z" fill="white"/>
<path d="M12.198 -0.000140593C17.0847 -0.0226896 21.1145 3.63992 21.3078 8.67802C21.4946 13.5776 17.7515 17.8007 12.6071 17.9747C7.68173 18.139 3.57458 14.3088 3.36197 9.34805C3.15581 4.55477 6.85063 0.15126 12.198 -0.000140593ZM19.6778 9.00337C19.7422 4.80603 16.1441 1.51387 12.082 1.6395C8.02641 1.76513 5.07892 5.21835 4.97906 8.75533C4.85987 12.9366 8.23901 16.3866 12.4364 16.3447C16.4308 16.306 19.7326 12.9752 19.6778 9.00337Z" fill="white"/>
<path d="M11.1866 10.2146C11.2897 10.0922 11.3863 9.96013 11.4991 9.84738C12.7038 8.63618 13.915 7.42819 15.123 6.21699C15.3195 6.02049 15.5321 5.86264 15.8285 5.86909C16.1313 5.87553 16.3664 6.00116 16.5114 6.26531C16.6596 6.53267 16.6531 6.81293 16.4953 7.07707C16.4309 7.1866 16.3374 7.28323 16.2472 7.37343C14.788 8.8359 13.3287 10.2951 11.8695 11.7544C11.8115 11.8124 11.7503 11.8736 11.6891 11.9283C11.3348 12.2408 10.945 12.2569 10.5906 11.9477C10.3007 11.6932 10.0334 11.4097 9.75956 11.1391C9.28925 10.672 8.80927 10.2082 8.35507 9.72497C8.20367 9.56391 8.06516 9.35453 8.00395 9.14192C7.91053 8.80691 8.10059 8.47511 8.41628 8.30438C8.7223 8.13688 9.09275 8.17231 9.34723 8.42357C9.87874 8.9422 10.3974 9.47049 10.916 9.99879C10.9772 10.0632 11.0255 10.1437 11.0803 10.2146C11.1125 10.2146 11.1447 10.2146 11.1801 10.2146H11.1866Z" fill="white"/>
</svg>
