<svg width="61" height="61" viewBox="0 0 61 61" fill="none" xmlns="http://www.w3.org/2000/svg">
<path d="M41.5351 0H19.0342C8.67912 0 0.284668 8.43425 0.284668 18.8384V41.446C0.284668 51.8502 8.67912 60.2844 19.0342 60.2844H41.5351C51.8902 60.2844 60.2847 51.8502 60.2847 41.446V18.8384C60.2847 8.43425 51.8902 0 41.5351 0Z" fill="white"/>
<path d="M41.5351 0H19.0342C8.67912 0 0.284668 8.43425 0.284668 18.8384V41.446C0.284668 51.8502 8.67912 60.2844 19.0342 60.2844H41.5351C51.8902 60.2844 60.2847 51.8502 60.2847 41.446V18.8384C60.2847 8.43425 51.8902 0 41.5351 0Z" fill="url(#paint0_radial_346_11302)"/>
<g style="mix-blend-mode:overlay" opacity="0.9">
<path d="M41.5351 0H19.0342C8.67912 0 0.284668 8.43425 0.284668 18.8384V41.446C0.284668 51.8502 8.67912 60.2844 19.0342 60.2844H41.5351C51.8902 60.2844 60.2847 51.8502 60.2847 41.446V18.8384C60.2847 8.43425 51.8902 0 41.5351 0Z" fill="#333333"/>
</g>
<path d="M45.7259 20.6514V26.6845H45.7203C45.4259 26.7132 45.1296 26.7281 44.8333 26.7299C41.584 26.7299 38.5536 25.0846 36.773 22.3533V37.2565C36.773 43.3397 31.865 48.2719 25.8096 48.2719C19.7542 48.2719 14.8462 43.3406 14.8462 37.2565C14.8462 31.1724 19.7542 26.2411 25.8096 26.2411C26.0385 26.2411 26.2619 26.2615 26.4871 26.2764V31.7048C26.2619 31.6779 26.0413 31.6361 25.8096 31.6361C22.7191 31.6361 20.2139 34.1532 20.2139 37.2584C20.2139 40.3635 22.7191 42.8806 25.8096 42.8806C28.9 42.8806 31.6296 40.434 31.6296 37.3279L31.684 12.0159H36.8523C37.3397 16.6726 41.0773 20.3101 45.725 20.6514H45.7259Z" fill="white"/>
<defs>
<radialGradient id="paint0_radial_346_11302" cx="0" cy="0" r="1" gradientUnits="userSpaceOnUse" gradientTransform="translate(55.3628 5.61202) scale(69.8188 70.1497)">
<stop stop-color="#D1D1D1"/>
<stop offset="1" stop-color="#3F3F3F"/>
</radialGradient>
</defs>
</svg>
