<svg width="60" height="60" viewBox="0 0 60 60" fill="none" xmlns="http://www.w3.org/2000/svg">
<path d="M41.2505 0L18.7495 0C8.39445 0 0 8.39445 0 18.7495L0 41.2505C0 51.6055 8.39445 60 18.7495 60H41.2505C51.6055 60 60 51.6055 60 41.2505V18.7495C60 8.39445 51.6055 0 41.2505 0Z" fill="white"/>
<path d="M41.2505 0L18.7495 0C8.39445 0 0 8.39445 0 18.7495L0 41.2505C0 51.6055 8.39445 60 18.7495 60H41.2505C51.6055 60 60 51.6055 60 41.2505V18.7495C60 8.39445 51.6055 0 41.2505 0Z" fill="url(#paint0_radial_346_11314)"/>
<g style="mix-blend-mode:color">
<path d="M41.2505 0L18.7495 0C8.39445 0 0 8.39445 0 18.7495L0 41.2505C0 51.6055 8.39445 60 18.7495 60H41.2505C51.6055 60 60 51.6055 60 41.2505V18.7495C60 8.39445 51.6055 0 41.2505 0Z" fill="#1DA1F2"/>
</g>
<g style="mix-blend-mode:soft-light" opacity="0.6">
<path d="M41.2505 0L18.7495 0C8.39445 0 0 8.39445 0 18.7495L0 41.2505C0 51.6055 8.39445 60 18.7495 60H41.2505C51.6055 60 60 51.6055 60 41.2505V18.7495C60 8.39445 51.6055 0 41.2505 0Z" fill="#1DA1F2"/>
</g>
<path d="M23.46 44.3243C36.7624 44.3243 44.0372 33.3037 44.0372 23.747C44.0372 23.4341 44.0308 23.1221 44.0169 22.812C45.4292 21.791 46.656 20.5172 47.6252 19.067C46.3292 19.643 44.9345 20.0307 43.4723 20.2052C44.9649 19.3098 46.1114 17.8929 46.6523 16.2046C45.2548 17.0326 43.7077 17.6354 42.06 17.9603C40.74 16.5544 38.8606 15.6757 36.7809 15.6757C32.7868 15.6757 29.5477 18.9147 29.5477 22.907C29.5477 23.4747 29.6114 24.0267 29.7351 24.5557C23.7249 24.2538 18.3951 21.3757 14.8283 16.9994C14.2061 18.0683 13.8489 19.3098 13.8489 20.6344C13.8489 23.1434 15.1255 25.3587 17.0668 26.6547C15.8806 26.6178 14.7655 26.292 13.7917 25.7501C13.7898 25.7806 13.7898 25.811 13.7898 25.8424C13.7898 29.3455 16.2831 32.2698 19.5923 32.9326C18.9849 33.0978 18.3461 33.1873 17.6861 33.1873C17.22 33.1873 16.7668 33.1412 16.3264 33.0572C17.2468 35.9307 19.9172 38.0215 23.0824 38.0806C20.6068 40.02 17.4886 41.1766 14.1 41.1766C13.5166 41.1766 12.9406 41.1433 12.3748 41.076C15.576 43.127 19.3754 44.3243 23.4609 44.3243" fill="white"/>
<defs>
<radialGradient id="paint0_radial_346_11314" cx="0" cy="0" r="1" gradientUnits="userSpaceOnUse" gradientTransform="translate(54.4172 5.58554) scale(69.1191)">
<stop stop-color="#D7D7D7"/>
<stop offset="1" stop-color="#393939"/>
</radialGradient>
</defs>
</svg>
