<svg width="60" height="61" viewBox="0 0 60 61" fill="none" xmlns="http://www.w3.org/2000/svg">
<path d="M41.2505 0.240234H18.7495C8.39445 0.240234 0 8.63469 0 18.9898V41.4907C0 51.8458 8.39445 60.2402 18.7495 60.2402H41.2505C51.6055 60.2402 60 51.8458 60 41.4907V18.9898C60 8.63469 51.6055 0.240234 41.2505 0.240234Z" fill="white"/>
<path d="M41.2505 0.240234H18.7495C8.39445 0.240234 0 8.63469 0 18.9898V41.4907C0 51.8458 8.39445 60.2402 18.7495 60.2402H41.2505C51.6055 60.2402 60 51.8458 60 41.4907V18.9898C60 8.63469 51.6055 0.240234 41.2505 0.240234Z" fill="url(#paint0_radial_346_11288)"/>
<g style="mix-blend-mode:color">
<path d="M41.2505 0.240234H18.7495C8.39445 0.240234 0 8.63469 0 18.9898V41.4907C0 51.8458 8.39445 60.2402 18.7495 60.2402H41.2505C51.6055 60.2402 60 51.8458 60 41.4907V18.9898C60 8.63469 51.6055 0.240234 41.2505 0.240234Z" fill="#E52D27"/>
</g>
<g style="mix-blend-mode:soft-light" opacity="0.6">
<path d="M41.2505 0.240234H18.7495C8.39445 0.240234 0 8.63469 0 18.9898V41.4907C0 51.8458 8.39445 60.2402 18.7495 60.2402H41.2505C51.6055 60.2402 60 51.8458 60 41.4907V18.9898C60 8.63469 51.6055 0.240234 41.2505 0.240234Z" fill="#E52D27"/>
</g>
<path d="M47.6399 23.0432C47.6399 23.0432 47.2883 20.562 46.2092 19.47C44.8403 18.0364 43.3061 18.0291 42.6018 17.9451C37.5636 17.5804 30.0073 17.5804 30.0073 17.5804H29.9916C29.9916 17.5804 22.4353 17.5804 17.3972 17.9451C16.6938 18.0291 15.1596 18.0364 13.7898 19.47C12.7107 20.5629 12.359 23.0432 12.359 23.0432C12.359 23.0432 11.999 25.9564 11.999 28.8697V31.6011C11.999 34.5143 12.359 37.4275 12.359 37.4275C12.359 37.4275 12.7107 39.9088 13.7898 41.0008C15.1596 42.4343 16.9578 42.3891 17.759 42.5395C20.639 42.8155 29.999 42.9014 29.999 42.9014C29.999 42.9014 37.5636 42.8903 42.6009 42.5257C43.3043 42.4417 44.8393 42.4343 46.2083 41.0008C47.2873 39.9078 47.639 37.4275 47.639 37.4275C47.639 37.4275 47.9981 34.5143 47.9981 31.6011V28.8697C47.9981 25.9564 47.639 23.0432 47.639 23.0432H47.6399ZM26.2809 34.9103V24.7952L36.0083 29.8703L26.2809 34.9103Z" fill="white"/>
<defs>
<radialGradient id="paint0_radial_346_11288" cx="0" cy="0" r="1" gradientUnits="userSpaceOnUse" gradientTransform="translate(54.4172 5.82577) scale(69.1191)">
<stop stop-color="#D7D7D7"/>
<stop offset="1" stop-color="#393939"/>
</radialGradient>
</defs>
</svg>
